<?xml version="1.0" standalone="no"?>
<!DOCTYPE svg PUBLIC "-//W3C//DTD SVG 1.1//EN" "http://www.w3.org/Graphics/SVG/1.1/DTD/svg11.dtd" >
<svg xmlns="http://www.w3.org/2000/svg">
<metadata></metadata>
<defs>
<font id="SteelfishRgRegular" horiz-adv-x="280" >
<font-face units-per-em="1000" ascent="851" descent="-149" />
<missing-glyph horiz-adv-x="136" />
<glyph horiz-adv-x="136" />
<glyph unicode=" "  horiz-adv-x="136" />
<glyph unicode="&#x09;" horiz-adv-x="136" />
<glyph unicode="&#xa0;" horiz-adv-x="136" />
<glyph unicode="!" horiz-adv-x="160" d="M119 0h-78v109h78v-109zM104 159h-49l-15 342v322h80v-321z" />
<glyph unicode="&#x22;" horiz-adv-x="257" d="M86 595h-40l-15 139v89h70v-89zM211 595h-40l-15 139v89h70v-89z" />
<glyph unicode="#" horiz-adv-x="395" d="M223 0h-53l50 296h-85l-50 -296h-52l49 296h-61v65h72l20 123h-75v65h86l45 274h55l-47 -274h84l46 274h54l-47 -274h60v-65h-70l-21 -123h72v-65h-83zM230 361l21 123h-85l-20 -123h84z" />
<glyph unicode="$" horiz-adv-x="286" d="M158 -52h-31v62q-96 10 -96 134v158h58v-124q0 -33 2 -50.5t10.5 -31.5t26.5 -17v298q-54 54 -65 68q-32 40 -32 116v118q0 124 96 133v57h31v-57q49 -4 71.5 -36.5t22.5 -96.5v-133h-57v119q0 37 -7.5 56t-31.5 23v-291q52 -45 64 -59q35 -43 35 -140v-110 q0 -125 -97 -135v-61zM194 138v108q0 42 -8 67t-30 45v-279q38 6 38 59zM128 474v270q-39 -7 -39 -61v-123q0 -50 39 -86z" />
<glyph unicode="%" horiz-adv-x="480" d="M32 487v281q0 70 67 70q68 0 68 -70v-281q0 -70 -68 -70q-67 0 -67 70zM121 486v283q0 23 -22 23q-21 0 -21 -23v-283q0 -23 21 -23q22 0 22 23zM83 0h-52l362 823h51zM312 55v281q0 70 67 70q68 0 68 -70v-281q0 -70 -68 -70q-67 0 -67 70zM401 54v283q0 23 -22 23 q-21 0 -21 -23v-283q0 -23 21 -23q22 0 22 23z" />
<glyph unicode="&#x26;" horiz-adv-x="376" d="M359 79v-71q-19 -12 -49 -12q-34 0 -54 22q-33 -27 -92 -27q-80 0 -108.5 40t-28.5 131v57q0 68 16.5 113.5t58.5 100.5q-33 90 -41.5 130.5t-8.5 82.5v50q0 72 25 103t82 31q105 0 105 -132v-58q0 -61 -21 -108.5t-67 -111.5l95 -270q20 51 20 123v32h58v-35 q0 -123 -45 -196q10 -8 25 -8q21 0 30 13zM227 79l-96 277q-18 -28 -24 -55.5t-6 -78.5v-59q0 -56 15 -78.5t54 -22.5q37 0 57 17zM117 642q0 -67 32 -150q54 72 54 156v42q0 67 -41 67q-45 0 -45 -63v-52z" />
<glyph unicode="'" horiz-adv-x="132" d="M86 595h-40l-15 139v89h70v-89z" />
<glyph unicode="(" horiz-adv-x="256" d="M234 -80h-8q-77 0 -114.5 41.5t-37.5 131.5v637q0 90 37.5 131.5t114.5 41.5h8v-56h-8q-97 0 -97 -117v-637q0 -118 97 -118h8v-55z" />
<glyph unicode=")" horiz-adv-x="256" d="M82 -80h-8v55h8q97 0 97 118v637q0 117 -97 117h-8v56h8q77 0 114.5 -41.5t37.5 -131.5v-637q0 -90 -37.5 -131.5t-114.5 -41.5z" />
<glyph unicode="*" horiz-adv-x="335" d="M275 562l-38 -28l-71 107l-69 -107l-38 28l79 99l-123 34l15 45l119 -45l-7 128h49l-7 -128l120 46l14 -46l-123 -34z" />
<glyph unicode="+" horiz-adv-x="462" d="M260 224h-57v167h-166v57h166v165h57v-165h166v-57h-166v-167z" />
<glyph unicode="," horiz-adv-x="134" d="M49 -60h-8v33h6q17 0 17 18v31h-33v103h72v-129q0 -56 -54 -56z" />
<glyph unicode="-" horiz-adv-x="182" d="M171 385h-158v59h158v-59z" />
<glyph unicode="." horiz-adv-x="133" d="M102 0h-71v125h71v-125z" />
<glyph unicode="/" horiz-adv-x="241" d="M62 0h-56l172 823h56z" />
<glyph unicode="0" horiz-adv-x="328" d="M31 131v561q0 140 133 140t133 -140v-561q0 -140 -133 -140t-133 140zM222 129v564q0 64 -58 64q-57 0 -57 -64v-564q0 -64 57 -64q58 0 58 64z" />
<glyph unicode="1" horiz-adv-x="176" d="M136 0h-75v688h-44v74h22q30 0 30 37v24h67v-823z" />
<glyph unicode="2" horiz-adv-x="309" d="M284 0h-257v151q0 75 13 118.5t61 106.5q69 92 88 130t19 95v88q0 66 -54 66q-29 0 -40.5 -16t-11.5 -51v-142h-75v142q0 75 31 109.5t96 34.5q130 0 130 -144v-92q0 -63 -21.5 -114.5t-69.5 -112.5q-59 -75 -74.5 -114t-15.5 -104v-76h181v-75z" />
<glyph unicode="3" horiz-adv-x="310" d="M209 131v188q0 35 -11.5 50t-43.5 15h-39v71h43q29 0 39.5 15.5t10.5 49.5v170q0 35 -11.5 50t-41.5 15q-29 0 -40.5 -15t-11.5 -50v-145h-75v145q0 74 30.5 108t96.5 34t96 -34t30 -109v-177q0 -71 -59 -93q61 -15 61 -93v-195q0 -65 -32.5 -102.5t-95.5 -37.5t-96 37.5 t-33 101.5v162h77v-162q0 -64 52 -64q54 0 54 65z" />
<glyph unicode="4" horiz-adv-x="319" d="M197 241l2 388l-121 -388h119zM267 0h-70v169h-187v66l185 588h72v-582h40v-72h-40v-169z" />
<glyph unicode="5" horiz-adv-x="316" d="M213 130v266q0 58 -55 58q-48 0 -60 -50l-67 3l10 416h240v-77h-171l-9 -265q25 41 86 41q50 0 74.5 -30t24.5 -97v-266q0 -70 -30.5 -104t-95.5 -34q-128 0 -128 138v173h74v-173q0 -63 54 -63q53 0 53 64z" />
<glyph unicode="6" horiz-adv-x="319" d="M31 130v562q0 66 33 103t96 37q125 0 125 -140v-142h-73v142q0 63 -52 63q-53 0 -53 -63v-217q23 42 80 42q53 0 78 -31t25 -100v-255q0 -67 -33 -103.5t-97 -36.5q-63 0 -96 36.5t-33 102.5zM214 131v238q0 75 -54 75q-48 0 -53 -49v-246q0 -41 12 -62t41 -21 q54 0 54 65z" />
<glyph unicode="7" horiz-adv-x="288" d="M145 0h-76q1 486 133 746h-188v77h260v-71q-67 -149 -97.5 -326.5t-31.5 -425.5z" />
<glyph unicode="8" horiz-adv-x="315" d="M285 325v-197q0 -137 -129 -137q-128 0 -128 137v197q0 80 61 100q-55 22 -55 95v170q0 142 122 142t122 -142v-170q0 -74 -54 -95q61 -21 61 -100zM210 129v201q0 54 -54 54q-53 0 -53 -54v-201q0 -63 53 -63q54 0 54 63zM209 510v180q0 36 -11 50.5t-42 14.5 q-30 0 -41 -14.5t-11 -50.5v-180q0 -29 12 -42t40 -13q53 0 53 55z" />
<glyph unicode="9" horiz-adv-x="319" d="M211 443v248q0 64 -54 64q-28 0 -40.5 -14.5t-12.5 -49.5v-238q0 -59 53 -59q49 0 54 49zM211 131v229q-22 -41 -79 -41q-54 0 -78.5 30.5t-24.5 99.5v243q0 140 128 140q130 0 130 -139v-562q0 -67 -33 -103.5t-97 -36.5q-60 0 -93.5 37t-33.5 103v142h74v-142 q0 -65 53 -65q54 0 54 65z" />
<glyph unicode=":" horiz-adv-x="133" d="M102 366h-71v124h71v-124zM102 0h-71v125h71v-125z" />
<glyph unicode=";" horiz-adv-x="134" d="M102 366h-71v124h71v-124zM49 -60h-8v33h6q17 0 17 18v31h-33v103h72v-129q0 -56 -54 -56z" />
<glyph unicode="&#x3c;" horiz-adv-x="462" d="M426 255l-389 129v70l389 128v-58l-331 -103l331 -109v-57z" />
<glyph unicode="=" horiz-adv-x="462" d="M426 484h-389v58h389v-58zM426 297h-389v58h389v-58z" />
<glyph unicode="&#x3e;" horiz-adv-x="462" d="M426 384l-389 -129v57l331 109l-331 103v58l389 -128v-70z" />
<glyph unicode="?" horiz-adv-x="299" d="M176 187h-71v111q0 58 11 93t41 69q29 34 36.5 57.5t7.5 85.5v87q0 65 -51 65q-53 0 -53 -64v-145h-73v144q0 73 30.5 107.5t95.5 34.5t95.5 -35t30.5 -108v-86q0 -109 -49 -166q-35 -40 -43 -62t-8 -75v-113zM176 0h-71v125h71v-125z" />
<glyph unicode="@" horiz-adv-x="515" d="M433 63h50q3 -9 3 -22q0 -144 -228 -144q-112 0 -170.5 57t-58.5 192v349q0 123 54 176.5t173 53.5q113 0 166 -51t53 -160v-305q0 -47 -24 -77.5t-64 -30.5q-27 0 -47 12t-28 31q-4 -16 -20.5 -27.5t-42.5 -11.5q-82 0 -82 94v217q0 57 21 79.5t61 22.5q43 0 58 -38 q0 13 2 33h37v-313q1 -15 3.5 -24.5t11 -17t23.5 -7.5q39 0 39 55v309q0 150 -167 150q-93 0 -130.5 -44.5t-37.5 -139.5v-337q0 -101 44.5 -143t134.5 -42t128.5 22t38.5 66q0 11 -1 16zM300 186v234q-3 23 -11.5 33t-25.5 10q-45 0 -45 -50v-201q0 -32 10.5 -45.5 t34.5 -13.5q29 0 37 33z" />
<glyph unicode="A" horiz-adv-x="335" d="M321 0h-76l-18 138h-123l-18 -138h-74l113 823h89zM218 208q-48 394 -51 422q-24 -205 -54 -422h105z" />
<glyph unicode="B" horiz-adv-x="325" d="M219 510v173q0 35 -11.5 49t-39.5 14h-55v-291h56q27 0 38.5 13t11.5 42zM222 139v183q0 36 -11 51t-42 15h-56v-313h55q54 0 54 64zM168 0h-131v823h131q65 0 93.5 -33.5t28.5 -107.5v-165q0 -77 -50 -91q60 -13 60 -91v-196q0 -139 -132 -139z" />
<glyph unicode="C" horiz-adv-x="309" d="M213 131v171h69v-170q0 -72 -29 -106.5t-91 -34.5q-131 0 -131 139v560q0 142 131 142q120 0 120 -140v-146h-69v145q0 34 -11.5 49t-39.5 15q-54 0 -54 -64v-560q0 -65 54 -65q27 0 39 15.5t12 49.5z" />
<glyph unicode="D" horiz-adv-x="326" d="M219 140v541q0 65 -54 65h-52v-671h52q54 0 54 65zM165 0h-128v823h128q64 0 97 -37t33 -104v-542q0 -140 -130 -140z" />
<glyph unicode="E" d="M260 0h-223v823h218v-77h-142v-289h100v-76h-100v-306h147v-75z" />
<glyph unicode="F" horiz-adv-x="270" d="M113 0h-76v823h223v-77h-147v-293h101v-76h-101v-377z" />
<glyph unicode="G" horiz-adv-x="322" d="M292 -5h-12l-25 45q-25 -49 -100 -49q-124 0 -124 140v560q0 68 33 104.5t97 36.5q125 0 125 -141v-145h-68v145q0 64 -57 64q-54 0 -54 -64v-560q0 -31 15 -48t38 -17q54 0 59 59v187h-63v72h136v-389z" />
<glyph unicode="H" horiz-adv-x="332" d="M295 0h-76v381h-106v-381h-76v823h76v-367h106v367h76v-823z" />
<glyph unicode="I" horiz-adv-x="154" d="M115 0h-76v823h76v-823z" />
<glyph unicode="J" horiz-adv-x="217" d="M10 1v76q18 -7 48 -7q49 0 49 64v689h76v-689q0 -140 -125 -140q-30 0 -48 7z" />
<glyph unicode="K" horiz-adv-x="349" d="M344 0h-87l-144 405v-405h-76v823h76v-355l139 355h82l-156 -375z" />
<glyph unicode="L" horiz-adv-x="270" d="M260 0h-223v823h76v-748h147v-75z" />
<glyph unicode="M" horiz-adv-x="451" d="M416 0h-71v249q0 118 2 356l-89 -605h-67l-88 605q2 -238 2 -356v-249h-70v823h102l87 -643l87 643h105v-823z" />
<glyph unicode="N" horiz-adv-x="353" d="M318 0h-76l-142 601q1 -122 1 -365v-236h-66v823h91l126 -603q-1 112 -1 333v270h67v-823z" />
<glyph unicode="O" horiz-adv-x="321" d="M31 131v561q0 140 129 140q130 0 130 -140v-561q0 -140 -130 -140q-129 0 -129 140zM214 131v561q0 63 -54 63q-53 0 -53 -63v-561q0 -65 53 -65q54 0 54 65z" />
<glyph unicode="P" horiz-adv-x="322" d="M231 537v137q0 37 -15.5 54.5t-50.5 17.5h-52v-281h53q33 0 49 17t16 55zM113 0h-76v823h128q72 0 106.5 -36.5t34.5 -112.5v-135q0 -77 -34 -112.5t-106 -35.5h-53v-391z" />
<glyph unicode="Q" horiz-adv-x="321" d="M290 -11v-61q-20 -24 -67 -24q-46 0 -70.5 29.5t-24.5 73.5q-97 16 -97 137v548q0 140 129 140q130 0 130 -140v-548q0 -61 -27 -97.5t-83 -40.5q0 -18 13 -30t40 -12q38 0 57 25zM214 140v552q0 63 -54 63q-53 0 -53 -63v-552q0 -63 53 -63q54 0 54 63z" />
<glyph unicode="R" horiz-adv-x="331" d="M313 0h-83q-30 225 -58 374q-6 -1 -18 -1h-41v-373h-76v823h125q73 0 108 -34.5t35 -113.5v-164q0 -90 -61 -121q31 -151 69 -390zM228 510v155q0 45 -13.5 63t-52.5 18h-49v-304h50q35 0 50 16t15 52z" />
<glyph unicode="S" horiz-adv-x="310" d="M207 127v117q0 36 -4.5 51t-20.5 34q-19 22 -61 64.5t-67 72.5q-18 21 -22.5 43.5t-4.5 63.5v123q0 136 128 136q67 0 96 -33t29 -103v-150h-71v140q0 69 -52 69q-53 0 -53 -59v-122q0 -42 18 -64q22 -27 64 -69.5t61 -64.5q22 -25 29 -52.5t7 -78.5v-118 q0 -136 -128 -136t-128 136v175h73v-164q0 -72 53 -72q54 0 54 61z" />
<glyph unicode="T" horiz-adv-x="281" d="M178 0h-75v746h-92v77h259v-77h-92v-746z" />
<glyph unicode="U" horiz-adv-x="326" d="M216 131v692h76v-692q0 -140 -129 -140t-129 140v692h76v-692q0 -65 53 -65t53 65z" />
<glyph unicode="V" horiz-adv-x="338" d="M216 0h-102l-102 823h79q61 -499 76 -692q15 164 82 692h76z" />
<glyph unicode="W" horiz-adv-x="526" d="M410 0h-92q-36 306 -58 610q-5 -66 -26.5 -279t-36.5 -331h-93l-92 823h79q44 -390 63 -647q20 229 71 647h76q45 -417 62 -647q34 349 71 647h80z" />
<glyph unicode="X" horiz-adv-x="339" d="M334 0h-82q-61 223 -85 357q-25 -139 -84 -357h-78l120 439l-102 384h81q46 -179 66 -295q18 105 67 295h79l-104 -382z" />
<glyph unicode="Y" horiz-adv-x="332" d="M202 0h-77v369l-116 454h80q53 -203 78 -339q27 144 81 339h74l-120 -454v-369z" />
<glyph unicode="Z" horiz-adv-x="307" d="M283 0h-258v76l182 673h-175v74h251v-69l-179 -677h179v-77z" />
<glyph unicode="[" horiz-adv-x="247" d="M225 -80h-151v983h151v-56h-96v-872h96v-55z" />
<glyph unicode="\" horiz-adv-x="241" d="M234 0h-56l-172 823h56z" />
<glyph unicode="]" horiz-adv-x="247" d="M225 -80h-151v55h96v872h-96v56h151v-983z" />
<glyph unicode="^" horiz-adv-x="314" d="M276 507h-55l-62 254l-67 -254h-55l86 316h69z" />
<glyph unicode="_" horiz-adv-x="297" d="M298 -108h-299v51h299v-51z" />
<glyph unicode="`" horiz-adv-x="275" d="M238 656h-67l-134 161h88z" />
<glyph unicode="a" horiz-adv-x="284" d="M253 0h-63q-4 13 -4 37q-25 -46 -74 -46q-89 0 -89 98v91q0 44 11 75t36.5 53t48 34t63.5 29v135q0 54 -45 54q-26 0 -35.5 -13t-9.5 -41v-130h-61v131q0 122 108 122q109 0 109 -122v-436q0 -52 5 -71zM182 97v219q-57 -20 -74.5 -50t-17.5 -91v-66q0 -51 47 -51 q35 0 45 39z" />
<glyph unicode="b" horiz-adv-x="303" d="M203 118v392q0 47 -44 47q-40 0 -53 -40v-410q14 -41 53 -41q23 0 33.5 12t10.5 40zM74 0h-37v823h69v-234q25 40 75 40q47 0 68.5 -27t21.5 -87v-396q0 -65 -24.5 -95.5t-77.5 -30.5q-57 0 -84 53q-3 -21 -11 -46z" />
<glyph unicode="c" horiz-adv-x="283" d="M190 116v137h64v-138q0 -58 -27.5 -91t-82.5 -33t-84 34t-29 92v384q0 59 29 93.5t84 34.5t81.5 -34t26.5 -93v-134h-62v135q0 55 -46 55t-46 -56v-385q0 -56 46 -56t46 55z" />
<glyph unicode="d" horiz-adv-x="303" d="M197 107v411q-15 41 -54 41q-23 0 -33 -12t-10 -39v-390q0 -28 10 -40t33 -12q39 0 54 41zM265 0h-58q-2 28 -2 46q-22 -53 -86 -53q-88 0 -88 116v406q0 60 22 87t69 27q48 0 75 -40v234h68v-823z" />
<glyph unicode="e" d="M184 353v149q0 55 -46 55q-43 0 -43 -55v-149h89zM184 116v136h65v-136q0 -125 -111 -125q-107 0 -107 125v386q0 127 107 127q111 0 111 -127v-199h-154v-187q0 -55 43 -55q46 0 46 55z" />
<glyph unicode="f" horiz-adv-x="191" d="M108 0h-68v558h-30v61h30v86q0 61 22 92t73 31q27 0 45 -6v-59q-10 3 -25 3q-47 0 -47 -63v-84h70v-61h-70v-558z" />
<glyph unicode="g" horiz-adv-x="303" d="M199 -35v103q-24 -39 -78 -39q-47 0 -68.5 26.5t-21.5 86.5v367q0 116 88 116q59 0 86 -53q0 17 2 47h58v-651q0 -117 -113 -117q-62 0 -87.5 29t-25.5 88v25h62v-28q0 -54 50 -54q48 0 48 54zM199 135v376q-15 41 -56 41q-44 0 -44 -47v-361q0 -26 10 -37.5t34 -11.5 q41 0 56 40z" />
<glyph unicode="h" horiz-adv-x="302" d="M268 0h-69v511q0 27 -9 38.5t-31 11.5q-38 0 -53 -38v-523h-69v823h69v-239q30 45 82 45q41 0 60.5 -27.5t19.5 -86.5v-515z" />
<glyph unicode="i" horiz-adv-x="147" d="M108 698h-69v125h69v-125zM108 0h-69v619h69v-619z" />
<glyph unicode="j" horiz-adv-x="163" d="M-32 -140v68q15 -4 36 -4q50 0 50 63v632h69v-632q0 -131 -119 -131q-16 0 -36 4zM123 698h-69v125h69v-125z" />
<glyph unicode="k" horiz-adv-x="300" d="M292 0h-76l-112 318v-318h-67v823h67v-471l112 267h73l-121 -274z" />
<glyph unicode="l" horiz-adv-x="143" d="M106 0h-69v823h69v-823z" />
<glyph unicode="m" horiz-adv-x="439" d="M404 0h-68v515q0 46 -35 46q-30 0 -46 -38v-523h-69v515q0 46 -35 46q-30 0 -45 -38v-523h-69v619h58q3 -23 3 -46q28 56 81 56q54 0 67 -54q28 54 83 54q75 0 75 -113v-516z" />
<glyph unicode="n" horiz-adv-x="302" d="M268 0h-69v511q0 27 -9 38.5t-31 11.5q-38 0 -53 -38v-523h-69v619h58q3 -23 3 -47q29 57 89 57q81 0 81 -114v-515z" />
<glyph unicode="o" horiz-adv-x="290" d="M31 114v391q0 124 114 124q56 0 85 -32t29 -92v-391q0 -60 -29 -91.5t-85 -31.5q-114 0 -114 123zM192 116v387q0 27 -10.5 41t-36.5 14t-36.5 -14t-10.5 -41v-389q0 -27 10.5 -40t36.5 -13q27 0 37 13t10 42z" />
<glyph unicode="p" horiz-adv-x="303" d="M203 110v390q0 29 -10.5 40.5t-33.5 11.5q-40 0 -53 -40v-412q13 -40 53 -40q44 0 44 50zM106 -139h-69v758h58q3 -23 3 -47q22 53 85 53q88 0 88 -116v-405q0 -61 -21.5 -87t-68.5 -26q-50 0 -75 38v-168z" />
<glyph unicode="q" horiz-adv-x="303" d="M197 100v413q-15 41 -54 41q-43 0 -43 -52v-392q0 -27 10 -38.5t33 -11.5q39 0 54 40zM265 -139h-68v168q-26 -38 -75 -38q-47 0 -69 26t-22 87v405q0 116 88 116q61 0 86 -53q0 24 3 47h57v-758z" />
<glyph unicode="r" horiz-adv-x="207" d="M106 0h-69v619h58q3 -23 3 -45q24 51 75 51q11 0 21 -4v-77q-10 7 -31 7q-40 0 -57 -37v-514z" />
<glyph unicode="s" horiz-adv-x="278" d="M181 108v71q0 36 -30 72q-14 17 -47 47.5t-45 45.5q-19 22 -25.5 43.5t-6.5 58.5v64q0 62 27.5 90.5t82.5 28.5q61 0 85.5 -28t24.5 -91v-101h-63v101q0 23 -13 36.5t-32 13.5q-45 0 -45 -50v-73q0 -21 5.5 -34t22.5 -31q12 -13 44 -41t45 -43q23 -27 31 -52t8 -66v-67 q0 -58 -28.5 -85t-86.5 -27q-108 0 -108 115v101h62v-99q0 -23 13 -36.5t34 -13.5q45 0 45 50z" />
<glyph unicode="t" horiz-adv-x="191" d="M180 51v-55q-12 -5 -32 -5q-54 0 -81.5 33.5t-27.5 94.5v439h-29v61h29v196h69v-196h70v-61h-70v-439q0 -38 13.5 -53.5t45.5 -15.5q9 0 13 1z" />
<glyph unicode="u" horiz-adv-x="300" d="M263 0h-59q-2 28 -2 45q-30 -52 -88 -52q-80 0 -80 107v519h69v-508q0 -27 9 -38.5t29 -11.5q39 0 53 37v521h69v-619z" />
<glyph unicode="v" horiz-adv-x="277" d="M170 0h-69l-90 619h69q41 -279 56 -449q13 131 62 449h66z" />
<glyph unicode="w" horiz-adv-x="418" d="M336 0h-83l-46 462l-52 -462h-82l-60 619h65l39 -486l57 486h67l51 -486l47 486h65z" />
<glyph unicode="x" horiz-adv-x="284" d="M277 0h-72q-44 172 -65 280q-23 -123 -64 -280h-69l90 329l-78 290h72q35 -138 52 -232q17 94 52 232h69l-78 -289z" />
<glyph unicode="y" horiz-adv-x="277" d="M19 -139v69q14 -5 34 -5q35 0 45 63l4 25l-91 606h72q38 -280 54 -466q21 209 61 466h66l-94 -627q-12 -73 -34.5 -104.5t-79.5 -31.5q-12 0 -37 5z" />
<glyph unicode="z" horiz-adv-x="256" d="M231 0h-206v64l141 487h-139v68h205v-64l-138 -485h137v-70z" />
<glyph unicode="{" horiz-adv-x="261" d="M243 -80h-8q-67 0 -98.5 32t-31.5 97v219q0 29 -15 48l-74 95l74 96q15 19 15 48v217q0 131 130 131h8v-56h-7q-40 0 -58 -17.5t-18 -58.5v-207q0 -55 -26 -88l-51 -65l51 -65q26 -34 26 -89v-206q0 -41 18 -58.5t58 -17.5h7v-55z" />
<glyph unicode="|" horiz-adv-x="193" d="M124 -80h-56v983h56v-983z" />
<glyph unicode="}" horiz-adv-x="261" d="M24 -80h-8v55h7q41 0 58.5 17.5t17.5 58.5v206q0 55 26 89l51 65l-51 65q-26 33 -26 88v207q0 41 -17.5 58.5t-58.5 17.5h-7v56h8q130 0 130 -131v-217q0 -29 15 -48l74 -96l-74 -95q-15 -19 -15 -48v-219q0 -65 -31.5 -97t-98.5 -32z" />
<glyph unicode="~" horiz-adv-x="463" d="M427 475v-68q-43 -40 -108 -40q-34 0 -93 25t-88 25q-58 0 -101 -52v69q36 40 98 40q40 0 99.5 -25t86.5 -25q61 0 106 51z" />
<glyph unicode="&#xa1;" horiz-adv-x="160" d="M41 823h78v-109h-78v109zM56 664h49l15 -342v-322h-80v321z" />
<glyph unicode="&#xa2;" horiz-adv-x="281" d="M160 0h-31v88q-48 4 -73 38t-25 88v381q0 55 25 88.5t73 37.5v102h31v-102q92 -10 92 -125v-135h-55v136q0 21 -10 36t-28 18v-492q38 5 38 54v134h57v-135q0 -114 -94 -123v-89zM131 159v492q-39 -7 -39 -54v-383q0 -50 39 -55z" />
<glyph unicode="&#xa3;" horiz-adv-x="286" d="M265 90v-67q-23 -31 -68 -31q-24 0 -60 19.5t-52 19.5q-34 0 -61 -40h-4v69q21 31 51 35q7 70 7 182v189h-55v58h55v149q0 77 31 118t90 41q29 0 49 -7v-70q-18 7 -34 7q-34 0 -52 -23t-18 -65v-150h104v-58h-104v-189q0 -109 -13 -194q1 0 28 -13t44 -13q38 0 58 33h4z " />
<glyph unicode="&#xa4;" horiz-adv-x="482" d="M423 165l-63 67q-56 -41 -120 -41q-67 0 -118 41l-65 -67l-41 41q8 9 35.5 35.5t30.5 29.5q-41 50 -41 120q0 65 41 119l-65 63l41 42l63 -66q50 42 119 42q67 0 121 -43l61 67l42 -42l-65 -63q41 -52 41 -119q0 -66 -41 -120l66 -65zM378 391q0 56 -40.5 96t-97.5 40 t-96.5 -40t-39.5 -96q0 -58 39.5 -97.5t96.5 -39.5t97.5 40t40.5 97z" />
<glyph unicode="&#xa5;" horiz-adv-x="340" d="M317 92h-114v-92h-72v92h-114v61h114v96h-114v61h114v57l-119 456h82l77 -338l79 338h76l-123 -457v-56h114v-61h-114v-96h114v-61z" />
<glyph unicode="&#xa6;" horiz-adv-x="193" d="M124 490h-56v413h56v-413zM124 -80h-56v413h56v-413z" />
<glyph unicode="&#xa7;" horiz-adv-x="287" d="M183 -26v86q0 40 -16 58q-19 22 -53 52t-47 46q-41 48 -41 100v99q0 80 59 104q-30 28 -42 51.5t-12 61.5v87q0 113 113 113q62 0 85.5 -30t23.5 -98v-95h-62v100q0 58 -45 58q-47 0 -47 -48v-86q0 -43 16 -59q19 -19 52 -48.5t48 -46.5q24 -27 32.5 -47t8.5 -56v-98 q0 -72 -58 -99q31 -32 42 -55t11 -63v-87q0 -113 -113 -113q-63 0 -86 30t-23 98v95h62v-100q0 -58 45 -58q47 0 47 48zM190 278v81q0 41 -11 59t-49 46q-38 -4 -38 -49v-81q0 -41 11 -59t48 -47q39 4 39 50z" />
<glyph unicode="&#xa8;" horiz-adv-x="293" d="M256 668h-69v125h69v-125zM106 668h-69v125h69v-125z" />
<glyph unicode="&#xa9;" horiz-adv-x="516" d="M485 602v-381q0 -123 -54 -176.5t-173 -53.5t-173 53.5t-54 176.5v381q0 123 54 176.5t173 53.5t173 -53.5t54 -176.5zM433 214v393q0 98 -39 136.5t-136 38.5t-136 -38.5t-39 -136.5v-393q0 -94 40 -133.5t135 -39.5q96 0 135.5 39.5t39.5 133.5zM290 239v108h44v-107 q0 -88 -75 -88q-82 0 -82 87v352q0 90 82 90q75 0 75 -89v-92h-44v92q0 39 -31 39q-32 0 -32 -40v-352q0 -39 32 -39q31 0 31 39z" />
<glyph unicode="&#xaa;" horiz-adv-x="217" d="M170 300h-42q-2 10 -2 19q-13 -24 -38 -24q-46 0 -46 54v50q0 44 20 64.5t62 37.5v77q0 22 -19 22q-18 0 -18 -22v-71h-41v72q0 67 60 67q61 0 61 -67v-250q0 -14 3 -29zM124 354v110q-18 -6 -26 -16.5t-9.5 -20t-1.5 -31.5v-35q0 -21 18 -21q13 0 19 14z" />
<glyph unicode="&#xab;" horiz-adv-x="390" d="M176 178l-157 118v75l157 112v-65l-120 -84l120 -88v-68zM371 178l-157 118v75l157 112v-65l-120 -84l120 -88v-68z" />
<glyph unicode="&#xac;" horiz-adv-x="419" d="M381 0h-71v389h-290v73h361v-462z" />
<glyph unicode="&#xae;" horiz-adv-x="516" d="M485 602v-381q0 -123 -54 -176.5t-173 -53.5t-173 53.5t-54 176.5v381q0 123 54 176.5t173 53.5t173 -53.5t54 -176.5zM433 214v393q0 98 -39 136.5t-136 38.5t-136 -38.5t-39 -136.5v-393q0 -94 40 -133.5t135 -39.5q96 0 135.5 39.5t39.5 133.5zM298 478v96q0 27 -9 39 t-32 12h-30v-190h30q41 0 41 43zM353 157h-54q-19 139 -36 232h-36v-232h-49v518h79q47 0 68.5 -22t21.5 -73v-103q0 -60 -37 -77q23 -109 43 -243z" />
<glyph unicode="&#xaf;" horiz-adv-x="304" d="M267 700h-230v59h230v-59z" />
<glyph unicode="&#xb0;" horiz-adv-x="305" d="M152 560q-58 0 -89.5 35.5t-31.5 95.5q0 59 31.5 96.5t89.5 37.5t89.5 -37.5t31.5 -96.5q0 -60 -31.5 -95.5t-89.5 -35.5zM151 603q76 0 76 88q0 89 -76 89q-77 0 -77 -89q0 -88 77 -88z" />
<glyph unicode="&#xb1;" horiz-adv-x="462" d="M260 224h-57v167h-166v57h166v165h57v-165h166v-57h-166v-167zM426 131h-389v57h389v-57z" />
<glyph unicode="&#xb2;" horiz-adv-x="185" d="M158 422h-131v75q0 37 7.5 59.5t31.5 57.5q29 43 37.5 62t8.5 47v44q0 24 -20 24q-19 0 -19 -24v-72h-46v71q0 38 16 55t49 17q66 0 66 -72v-48q0 -56 -43 -115q-27 -37 -34 -57t-7 -49v-29h84v-46z" />
<glyph unicode="&#xb3;" horiz-adv-x="186" d="M113 487v99q0 24 -20 24h-21v43h23q17 0 17 24v90q0 24 -19 24t-19 -24v-73h-46v73q0 71 65 71q33 0 48.5 -17t15.5 -55v-91q0 -32 -27 -44q28 -8 28 -44v-100q0 -33 -16.5 -51.5t-48.5 -18.5t-49 19t-17 51v81h47v-81q0 -24 19 -24q20 0 20 24z" />
<glyph unicode="&#xb4;" horiz-adv-x="275" d="M103 656h-66l112 161h89z" />
<glyph unicode="&#xb6;" horiz-adv-x="423" d="M345 -134h-63v884h-87v-779q0 -52 -25 -84.5t-72 -32.5q-22 0 -43 7v53q15 -4 24 -4q27 0 39 14t12 47v631h-16q-97 0 -97 108q0 51 24.5 82t76.5 31h286v-73h-59v-884zM130 637v113h-18q-43 0 -43 -58q0 -55 41 -55h20z" />
<glyph unicode="&#xb7;" horiz-adv-x="133" d="M102 340h-71v125h71v-125z" />
<glyph unicode="&#xb8;" horiz-adv-x="133" d="M56 -149h-11v25h8q11 0 11 12v20h-27v72h58v-90q0 -39 -39 -39z" />
<glyph unicode="&#xb9;" horiz-adv-x="125" d="M91 422h-46v336h-22v45h10q17 0 17 19v11h41v-411z" />
<glyph unicode="&#xba;" horiz-adv-x="220" d="M46 363v215q0 68 64 68t64 -68v-215q0 -68 -64 -68t-64 68zM129 364v212q0 23 -19 23t-19 -23v-212q0 -22 19 -22t19 22z" />
<glyph unicode="&#xbb;" horiz-adv-x="390" d="M176 296l-157 -118v68l120 88l-120 84v65l157 -112v-75zM371 296l-157 -118v68l120 88l-120 84v65l157 -112v-75z" />
<glyph unicode="&#xbc;" horiz-adv-x="480" d="M143 422h-46v336h-22v45h10q17 0 17 19v11h41v-411zM83 0h-52l362 823h51zM322 115h47q0 45 3 168q-29 -100 -50 -168zM412 -10h-43v82h-88v40l88 289h43v-286h20v-43h-20v-82z" />
<glyph unicode="&#xbd;" horiz-adv-x="480" d="M143 422h-46v336h-22v45h10q17 0 17 19v11h41v-411zM83 0h-52l362 823h51zM440 -10h-131v75q0 37 7.5 59.5t31.5 57.5q29 43 37.5 62t8.5 47v44q0 24 -20 24q-19 0 -19 -24v-72h-46v71q0 38 16 55t49 17q66 0 66 -72v-48q0 -56 -43 -115q-27 -37 -34 -57t-7 -49v-29h84 v-46z" />
<glyph unicode="&#xbe;" horiz-adv-x="480" d="M134 487v99q0 24 -20 24h-21v43h23q17 0 17 24v90q0 24 -19 24t-19 -24v-73h-46v73q0 71 65 71q33 0 48.5 -17t15.5 -55v-91q0 -32 -27 -44q28 -8 28 -44v-100q0 -33 -16.5 -51.5t-48.5 -18.5t-49 19t-17 51v81h47v-81q0 -24 19 -24q20 0 20 24zM83 0h-52l362 823h51z M312 115h47q0 45 3 168q-29 -100 -50 -168zM402 -10h-43v82h-88v40l88 289h43v-286h20v-43h-20v-82z" />
<glyph unicode="&#xbf;" horiz-adv-x="299" d="M124 636h71v-111q0 -58 -11 -93t-41 -69q-29 -34 -36.5 -57.5t-7.5 -85.5v-87q0 -65 51 -65q53 0 53 64v145h73v-144q0 -73 -30.5 -107.5t-95.5 -34.5t-95.5 35t-30.5 108v86q0 109 49 166q35 40 43 62t8 75v113zM124 823h71v-125h-71v125z" />
<glyph unicode="&#xc0;" horiz-adv-x="335" d="M321 0h-76l-18 138h-123l-18 -138h-74l113 823h89zM218 208q-48 394 -51 422q-24 -205 -54 -422h105zM218 860h-67l-134 161h88z" />
<glyph unicode="&#xc1;" horiz-adv-x="335" d="M321 0h-76l-18 138h-123l-18 -138h-74l113 823h89zM218 208q-48 394 -51 422q-24 -205 -54 -422h105zM183 860h-66l112 161h89z" />
<glyph unicode="&#xc2;" horiz-adv-x="335" d="M321 0h-76l-18 138h-123l-18 -138h-74l113 823h89zM218 208q-48 394 -51 422q-24 -205 -54 -422h105zM314 860h-67l-79 123l-82 -123h-64l108 161h80z" />
<glyph unicode="&#xc3;" horiz-adv-x="335" d="M321 0h-76l-18 138h-123l-18 -138h-74l113 823h89zM218 208q-48 394 -51 422q-24 -205 -54 -422h105zM287 978v-61q-21 -26 -61 -26q-23 0 -61 16.5t-60 16.5q-35 0 -57 -31v61q23 27 60 27q25 0 62.5 -16.5t59.5 -16.5q34 0 57 30z" />
<glyph unicode="&#xc4;" horiz-adv-x="335" d="M321 0h-76l-18 138h-123l-18 -138h-74l113 823h89zM218 208q-48 394 -51 422q-24 -205 -54 -422h105zM277 872h-69v125h69v-125zM127 872h-69v125h69v-125z" />
<glyph unicode="&#xc5;" horiz-adv-x="335" d="M321 0h-76l-18 138h-123l-18 -138h-74l113 823h89zM218 208q-48 394 -51 422q-24 -205 -54 -422h105zM264 941q0 -35 -25 -56.5t-72 -21.5q-46 0 -71 21.5t-25 56.5q0 36 25 58t71 22q47 0 72 -22t25 -58zM224 941q0 46 -57 46q-58 0 -58 -46q0 -45 58 -45q57 0 57 45z " />
<glyph unicode="&#xc6;" horiz-adv-x="462" d="M441 0h-223v138h-113l-19 -138h-74l113 823h312v-77h-142v-289h101v-76h-101v-306h146v-75zM218 208v538h-33l-71 -538h104z" />
<glyph unicode="&#xc7;" horiz-adv-x="309" d="M213 131v171h69v-170q0 -72 -29 -106.5t-91 -34.5q-131 0 -131 139v560q0 142 131 142q120 0 120 -140v-146h-69v145q0 34 -11.5 49t-39.5 15q-54 0 -54 -64v-560q0 -65 54 -65q27 0 39 15.5t12 49.5zM154 -149h-11v25h8q11 0 11 12v20h-27v72h58v-90q0 -39 -39 -39z" />
<glyph unicode="&#xc8;" d="M260 0h-223v823h218v-77h-142v-289h100v-76h-100v-306h147v-75zM191 860h-67l-134 161h88z" />
<glyph unicode="&#xc9;" d="M260 0h-223v823h218v-77h-142v-289h100v-76h-100v-306h147v-75zM155 860h-66l112 161h89z" />
<glyph unicode="&#xca;" d="M260 0h-223v823h218v-77h-142v-289h100v-76h-100v-306h147v-75zM291 860h-67l-79 123l-82 -123h-64l108 161h80z" />
<glyph unicode="&#xcb;" d="M260 0h-223v823h218v-77h-142v-289h100v-76h-100v-306h147v-75zM255 872h-69v125h69v-125zM105 872h-69v125h69v-125z" />
<glyph unicode="&#xcc;" horiz-adv-x="154" d="M115 0h-76v823h76v-823zM128 860h-67l-134 161h88z" />
<glyph unicode="&#xcd;" horiz-adv-x="154" d="M115 0h-76v823h76v-823zM93 860h-66l112 161h89z" />
<glyph unicode="&#xce;" horiz-adv-x="154" d="M115 0h-76v823h76v-823zM223 860h-67l-79 123l-82 -123h-64l108 161h80z" />
<glyph unicode="&#xcf;" horiz-adv-x="154" d="M115 0h-76v823h76v-823zM187 872h-69v125h69v-125zM37 872h-69v125h69v-125z" />
<glyph unicode="&#xd0;" horiz-adv-x="324" d="M164 0h-129v381h-25v76h25v366h129q63 0 96 -37t33 -104v-542q0 -140 -129 -140zM218 140v542q0 64 -54 64h-53v-289h60v-76h-60v-306h53q54 0 54 65z" />
<glyph unicode="&#xd1;" horiz-adv-x="353" d="M318 0h-76l-142 601q1 -122 1 -365v-236h-66v823h91l126 -603q-1 112 -1 333v270h67v-823zM296 978v-61q-21 -26 -61 -26q-23 0 -61 16.5t-60 16.5q-35 0 -57 -31v61q23 27 60 27q25 0 62.5 -16.5t59.5 -16.5q34 0 57 30z" />
<glyph unicode="&#xd2;" horiz-adv-x="321" d="M31 131v561q0 140 129 140q130 0 130 -140v-561q0 -140 -130 -140q-129 0 -129 140zM214 131v561q0 63 -54 63q-53 0 -53 -63v-561q0 -65 53 -65q54 0 54 65zM211 860h-67l-134 161h88z" />
<glyph unicode="&#xd3;" horiz-adv-x="321" d="M31 131v561q0 140 129 140q130 0 130 -140v-561q0 -140 -130 -140q-129 0 -129 140zM214 131v561q0 63 -54 63q-53 0 -53 -63v-561q0 -65 53 -65q54 0 54 65zM176 860h-66l112 161h89z" />
<glyph unicode="&#xd4;" horiz-adv-x="321" d="M31 131v561q0 140 129 140q130 0 130 -140v-561q0 -140 -130 -140q-129 0 -129 140zM214 131v561q0 63 -54 63q-53 0 -53 -63v-561q0 -65 53 -65q54 0 54 65zM307 860h-67l-79 123l-82 -123h-64l108 161h80z" />
<glyph unicode="&#xd5;" horiz-adv-x="321" d="M31 131v561q0 140 129 140q130 0 130 -140v-561q0 -140 -130 -140q-129 0 -129 140zM214 131v561q0 63 -54 63q-53 0 -53 -63v-561q0 -65 53 -65q54 0 54 65zM280 978v-61q-21 -26 -61 -26q-23 0 -61 16.5t-60 16.5q-35 0 -57 -31v61q23 27 60 27q25 0 62.5 -16.5 t59.5 -16.5q34 0 57 30z" />
<glyph unicode="&#xd6;" horiz-adv-x="321" d="M31 131v561q0 140 129 140q130 0 130 -140v-561q0 -140 -130 -140q-129 0 -129 140zM214 131v561q0 63 -54 63q-53 0 -53 -63v-561q0 -65 53 -65q54 0 54 65zM270 872h-69v125h69v-125zM120 872h-69v125h69v-125z" />
<glyph unicode="&#xd7;" horiz-adv-x="462" d="M389 301l-41 -40l-118 118l-117 -117l-40 40l117 117l-117 117l41 40l116 -116l118 117l40 -40l-117 -118z" />
<glyph unicode="&#xd8;" horiz-adv-x="321" d="M31 131v561q0 140 129 140q41 0 69 -14l22 99h39l-28 -127q28 -34 28 -98v-561q0 -140 -130 -140q-41 0 -69 14l-22 -99h-38l27 126q-27 36 -27 99zM214 131v437l-103 -469q12 -33 49 -33q54 0 54 65zM107 692v-437l102 469q-12 31 -49 31q-53 0 -53 -63z" />
<glyph unicode="&#xd9;" horiz-adv-x="326" d="M216 131v692h76v-692q0 -140 -129 -140t-129 140v692h76v-692q0 -65 53 -65t53 65zM214 860h-67l-134 161h88z" />
<glyph unicode="&#xda;" horiz-adv-x="326" d="M216 131v692h76v-692q0 -140 -129 -140t-129 140v692h76v-692q0 -65 53 -65t53 65zM178 860h-66l112 161h89z" />
<glyph unicode="&#xdb;" horiz-adv-x="326" d="M216 131v692h76v-692q0 -140 -129 -140t-129 140v692h76v-692q0 -65 53 -65t53 65zM309 860h-67l-79 123l-82 -123h-64l108 161h80z" />
<glyph unicode="&#xdc;" horiz-adv-x="326" d="M216 131v692h76v-692q0 -140 -129 -140t-129 140v692h76v-692q0 -65 53 -65t53 65zM272 872h-69v125h69v-125zM122 872h-69v125h69v-125z" />
<glyph unicode="&#xdd;" horiz-adv-x="332" d="M202 0h-77v369l-116 454h80q53 -203 78 -339q27 144 81 339h74l-120 -454v-369zM183 860h-66l112 161h89z" />
<glyph unicode="&#xde;" horiz-adv-x="327" d="M234 276v253q0 71 -66 71h-55v-397h56q65 0 65 73zM113 0h-76v823h76v-146h55q142 0 142 -148v-253q0 -72 -35.5 -110t-105.5 -38h-56v-128z" />
<glyph unicode="&#xdf;" horiz-adv-x="328" d="M152 -6l1 69q11 -3 29 -3q27 0 38.5 13t11.5 45v223q0 55 -51 55h-41v66h21q36 0 36 47v198q0 55 -46 55q-47 0 -47 -55v-707h-67v709q0 123 114 123q113 0 113 -123v-200q0 -52 -32 -67q30 -7 49 -33.5t19 -70.5v-220q0 -66 -26.5 -96.5t-86.5 -30.5q-26 0 -35 3z" />
<glyph unicode="&#xe0;" horiz-adv-x="284" d="M253 0h-63q-4 13 -4 37q-25 -46 -74 -46q-89 0 -89 98v91q0 44 11 75t36.5 53t48 34t63.5 29v135q0 54 -45 54q-26 0 -35.5 -13t-9.5 -41v-130h-61v131q0 122 108 122q109 0 109 -122v-436q0 -52 5 -71zM182 97v219q-57 -20 -74.5 -50t-17.5 -91v-66q0 -51 47 -51 q35 0 45 39zM193 656h-67l-134 161h88z" />
<glyph unicode="&#xe1;" horiz-adv-x="284" d="M253 0h-63q-4 13 -4 37q-25 -46 -74 -46q-89 0 -89 98v91q0 44 11 75t36.5 53t48 34t63.5 29v135q0 54 -45 54q-26 0 -35.5 -13t-9.5 -41v-130h-61v131q0 122 108 122q109 0 109 -122v-436q0 -52 5 -71zM182 97v219q-57 -20 -74.5 -50t-17.5 -91v-66q0 -51 47 -51 q35 0 45 39zM157 656h-66l112 161h89z" />
<glyph unicode="&#xe2;" horiz-adv-x="284" d="M253 0h-63q-4 13 -4 37q-25 -46 -74 -46q-89 0 -89 98v91q0 44 11 75t36.5 53t48 34t63.5 29v135q0 54 -45 54q-26 0 -35.5 -13t-9.5 -41v-130h-61v131q0 122 108 122q109 0 109 -122v-436q0 -52 5 -71zM182 97v219q-57 -20 -74.5 -50t-17.5 -91v-66q0 -51 47 -51 q35 0 45 39zM288 656h-67l-79 123l-82 -123h-64l108 161h80z" />
<glyph unicode="&#xe3;" horiz-adv-x="284" d="M253 0h-63q-4 13 -4 37q-25 -46 -74 -46q-89 0 -89 98v91q0 44 11 75t36.5 53t48 34t63.5 29v135q0 54 -45 54q-26 0 -35.5 -13t-9.5 -41v-130h-61v131q0 122 108 122q109 0 109 -122v-436q0 -52 5 -71zM182 97v219q-57 -20 -74.5 -50t-17.5 -91v-66q0 -51 47 -51 q35 0 45 39zM262 774v-61q-21 -26 -61 -26q-23 0 -61 16.5t-60 16.5q-35 0 -57 -31v61q23 27 60 27q25 0 62.5 -16.5t59.5 -16.5q34 0 57 30z" />
<glyph unicode="&#xe4;" horiz-adv-x="284" d="M253 0h-63q-4 13 -4 37q-25 -46 -74 -46q-89 0 -89 98v91q0 44 11 75t36.5 53t48 34t63.5 29v135q0 54 -45 54q-26 0 -35.5 -13t-9.5 -41v-130h-61v131q0 122 108 122q109 0 109 -122v-436q0 -52 5 -71zM182 97v219q-57 -20 -74.5 -50t-17.5 -91v-66q0 -51 47 -51 q35 0 45 39zM252 668h-69v125h69v-125zM102 668h-69v125h69v-125z" />
<glyph unicode="&#xe5;" horiz-adv-x="284" d="M253 0h-63q-4 13 -4 37q-25 -46 -74 -46q-89 0 -89 98v91q0 44 11 75t36.5 53t48 34t63.5 29v135q0 54 -45 54q-26 0 -35.5 -13t-9.5 -41v-130h-61v131q0 122 108 122q109 0 109 -122v-436q0 -52 5 -71zM182 97v219q-57 -20 -74.5 -50t-17.5 -91v-66q0 -51 47 -51 q35 0 45 39zM238 737q0 -35 -25 -56.5t-72 -21.5q-46 0 -71 21.5t-25 56.5q0 36 25 58t71 22q47 0 72 -22t25 -58zM198 737q0 46 -57 46q-58 0 -58 -46q0 -45 58 -45q57 0 57 45z" />
<glyph unicode="&#xe6;" horiz-adv-x="433" d="M337 116v136h65v-136q0 -125 -111 -125q-63 0 -89 48q-28 -48 -87 -48q-92 0 -92 98v91q0 44 11 75t36.5 53t48 34t63.5 29v136q0 53 -45 53t-45 -53v-131h-61v131q0 122 108 122q51 0 78 -29q26 29 74 29q111 0 111 -127v-199h-154v-192q0 -50 43 -50q46 0 46 55z M182 97v219q-57 -20 -74.5 -50t-17.5 -91v-60q0 -57 47 -57q35 0 45 39zM337 353v149q0 55 -46 55q-43 0 -43 -55v-149h89z" />
<glyph unicode="&#xe7;" horiz-adv-x="283" d="M190 116v137h64v-138q0 -58 -27.5 -91t-82.5 -33t-84 34t-29 92v384q0 59 29 93.5t84 34.5t81.5 -34t26.5 -93v-134h-62v135q0 55 -46 55t-46 -56v-385q0 -56 46 -56t46 55zM136 -149h-11v25h8q11 0 11 12v20h-27v72h58v-90q0 -39 -39 -39z" />
<glyph unicode="&#xe8;" d="M184 353v149q0 55 -46 55q-43 0 -43 -55v-149h89zM184 116v136h65v-136q0 -125 -111 -125q-107 0 -107 125v386q0 127 107 127q111 0 111 -127v-199h-154v-187q0 -55 43 -55q46 0 46 55zM191 656h-67l-134 161h88z" />
<glyph unicode="&#xe9;" d="M184 353v149q0 55 -46 55q-43 0 -43 -55v-149h89zM184 116v136h65v-136q0 -125 -111 -125q-107 0 -107 125v386q0 127 107 127q111 0 111 -127v-199h-154v-187q0 -55 43 -55q46 0 46 55zM155 656h-66l112 161h89z" />
<glyph unicode="&#xea;" d="M184 353v149q0 55 -46 55q-43 0 -43 -55v-149h89zM184 116v136h65v-136q0 -125 -111 -125q-107 0 -107 125v386q0 127 107 127q111 0 111 -127v-199h-154v-187q0 -55 43 -55q46 0 46 55zM286 656h-67l-79 123l-82 -123h-64l108 161h80z" />
<glyph unicode="&#xeb;" d="M184 353v149q0 55 -46 55q-43 0 -43 -55v-149h89zM184 116v136h65v-136q0 -125 -111 -125q-107 0 -107 125v386q0 127 107 127q111 0 111 -127v-199h-154v-187q0 -55 43 -55q46 0 46 55zM250 668h-69v125h69v-125zM100 668h-69v125h69v-125z" />
<glyph unicode="&#xec;" horiz-adv-x="158" d="M119 0h-69v619h69v-619zM135 656h-67l-134 161h88z" />
<glyph unicode="&#xed;" horiz-adv-x="158" d="M108 0h-69v619h69v-619zM89 656h-66l112 161h89z" />
<glyph unicode="&#xee;" horiz-adv-x="227" d="M148 0h-69v619h69v-619zM260 656h-67l-79 123l-82 -123h-64l108 161h80z" />
<glyph unicode="&#xef;" horiz-adv-x="178" d="M123 0h-69v619h69v-619zM198 668h-69v125h69v-125zM48 668h-69v125h69v-125z" />
<glyph unicode="&#xf0;" horiz-adv-x="321" d="M31 134v264q0 122 113 122q54 0 76 -44v115q0 65 -15 102l-103 -128l-27 23l110 137q-27 29 -84 30v77q87 0 132 -48l44 54l27 -23l-49 -60q35 -63 35 -183v-438q0 -69 -33 -106t-97 -37q-63 0 -96 37t-33 106zM213 131v248q-2 16 -4 24.5t-7 20t-15 16.5t-25 5 q-55 0 -55 -60v-242q0 -77 53 -77t53 65z" />
<glyph unicode="&#xf1;" horiz-adv-x="302" d="M268 0h-69v511q0 27 -9 38.5t-31 11.5q-38 0 -53 -38v-523h-69v619h58q3 -23 3 -47q29 57 89 57q81 0 81 -114v-515zM271 774v-61q-21 -26 -61 -26q-23 0 -61 16.5t-60 16.5q-35 0 -57 -31v61q23 27 60 27q25 0 62.5 -16.5t59.5 -16.5q34 0 57 30z" />
<glyph unicode="&#xf2;" horiz-adv-x="290" d="M31 114v391q0 124 114 124q56 0 85 -32t29 -92v-391q0 -60 -29 -91.5t-85 -31.5q-114 0 -114 123zM192 116v387q0 27 -10.5 41t-36.5 14t-36.5 -14t-10.5 -41v-389q0 -27 10.5 -40t36.5 -13q27 0 37 13t10 42zM196 656h-67l-134 161h88z" />
<glyph unicode="&#xf3;" horiz-adv-x="290" d="M31 114v391q0 124 114 124q56 0 85 -32t29 -92v-391q0 -60 -29 -91.5t-85 -31.5q-114 0 -114 123zM192 116v387q0 27 -10.5 41t-36.5 14t-36.5 -14t-10.5 -41v-389q0 -27 10.5 -40t36.5 -13q27 0 37 13t10 42zM160 656h-66l112 161h89z" />
<glyph unicode="&#xf4;" horiz-adv-x="290" d="M31 114v391q0 124 114 124q56 0 85 -32t29 -92v-391q0 -60 -29 -91.5t-85 -31.5q-114 0 -114 123zM192 116v387q0 27 -10.5 41t-36.5 14t-36.5 -14t-10.5 -41v-389q0 -27 10.5 -40t36.5 -13q27 0 37 13t10 42zM291 656h-67l-79 123l-82 -123h-64l108 161h80z" />
<glyph unicode="&#xf5;" horiz-adv-x="290" d="M31 114v391q0 124 114 124q56 0 85 -32t29 -92v-391q0 -60 -29 -91.5t-85 -31.5q-114 0 -114 123zM192 116v387q0 27 -10.5 41t-36.5 14t-36.5 -14t-10.5 -41v-389q0 -27 10.5 -40t36.5 -13q27 0 37 13t10 42zM265 774v-61q-21 -26 -61 -26q-23 0 -61 16.5t-60 16.5 q-35 0 -57 -31v61q23 27 60 27q25 0 62.5 -16.5t59.5 -16.5q34 0 57 30z" />
<glyph unicode="&#xf6;" horiz-adv-x="290" d="M31 114v391q0 124 114 124q56 0 85 -32t29 -92v-391q0 -60 -29 -91.5t-85 -31.5q-114 0 -114 123zM192 116v387q0 27 -10.5 41t-36.5 14t-36.5 -14t-10.5 -41v-389q0 -27 10.5 -40t36.5 -13q27 0 37 13t10 42zM255 668h-69v125h69v-125zM105 668h-69v125h69v-125z" />
<glyph unicode="&#xf7;" horiz-adv-x="462" d="M426 391h-389v57h389v-57zM266 518h-71v125h71v-125zM266 196h-71v125h71v-125z" />
<glyph unicode="&#xf8;" horiz-adv-x="290" d="M31 114v391q0 124 114 124q29 0 54 -10l22 94h38l-28 -118q28 -33 28 -90v-391q0 -60 -29 -91.5t-85 -31.5q-31 0 -54 9l-22 -94h-38l27 117q-27 31 -27 91zM192 116v312l-84 -354v-1q10 -12 37 -12t37 13t10 42zM98 503v-312l83 353q-11 14 -36 14q-26 0 -36.5 -14 t-10.5 -41z" />
<glyph unicode="&#xf9;" horiz-adv-x="300" d="M263 0h-59q-2 28 -2 45q-30 -52 -88 -52q-80 0 -80 107v519h69v-508q0 -27 9 -38.5t29 -11.5q39 0 53 37v521h69v-619zM201 656h-67l-134 161h88z" />
<glyph unicode="&#xfa;" horiz-adv-x="300" d="M263 0h-59q-2 28 -2 45q-30 -52 -88 -52q-80 0 -80 107v519h69v-508q0 -27 9 -38.5t29 -11.5q39 0 53 37v521h69v-619zM165 656h-66l112 161h89z" />
<glyph unicode="&#xfb;" horiz-adv-x="300" d="M263 0h-59q-2 28 -2 45q-30 -52 -88 -52q-80 0 -80 107v519h69v-508q0 -27 9 -38.5t29 -11.5q39 0 53 37v521h69v-619zM296 656h-67l-79 123l-82 -123h-64l108 161h80z" />
<glyph unicode="&#xfc;" horiz-adv-x="300" d="M263 0h-59q-2 28 -2 45q-30 -52 -88 -52q-80 0 -80 107v519h69v-508q0 -27 9 -38.5t29 -11.5q39 0 53 37v521h69v-619zM259 668h-69v125h69v-125zM109 668h-69v125h69v-125z" />
<glyph unicode="&#xfd;" horiz-adv-x="277" d="M19 -139v69q14 -5 34 -5q35 0 45 63l4 25l-91 606h72q38 -280 54 -466q21 209 61 466h66l-94 -627q-12 -73 -34.5 -104.5t-79.5 -31.5q-12 0 -37 5zM154 656h-66l112 161h89z" />
<glyph unicode="&#xfe;" horiz-adv-x="303" d="M106 -139h-69v962h69v-234q25 40 75 40q47 0 68.5 -27t21.5 -87v-411q0 -61 -21.5 -87t-68.5 -26q-50 0 -75 38v-168zM203 113v393q0 27 -10.5 39t-33.5 12q-40 0 -53 -40v-415q13 -40 53 -40q23 0 33.5 11.5t10.5 39.5z" />
<glyph unicode="&#xff;" horiz-adv-x="277" d="M19 -139v69q14 -5 34 -5q35 0 45 63l4 25l-91 606h72q38 -280 54 -466q21 209 61 466h66l-94 -627q-12 -73 -34.5 -104.5t-79.5 -31.5q-12 0 -37 5zM248 668h-69v125h69v-125zM98 668h-69v125h69v-125z" />
<glyph unicode="&#x100;" horiz-adv-x="335" d="M321 0h-76l-18 138h-123l-18 -138h-74l113 823h89zM218 208q-48 394 -51 422q-24 -205 -54 -422h105zM282 904h-230v59h230v-59z" />
<glyph unicode="&#x101;" horiz-adv-x="284" d="M253 0h-63q-4 13 -4 37q-25 -46 -74 -46q-89 0 -89 98v91q0 44 11 75t36.5 53t48 34t63.5 29v135q0 54 -45 54q-26 0 -35.5 -13t-9.5 -41v-130h-61v131q0 122 108 122q109 0 109 -122v-436q0 -52 5 -71zM182 97v219q-57 -20 -74.5 -50t-17.5 -91v-66q0 -51 47 -51 q35 0 45 39zM257 700h-230v59h230v-59z" />
<glyph unicode="&#x102;" horiz-adv-x="335" d="M321 0h-76l-18 138h-123l-18 -138h-74l113 823h89zM218 208q-48 394 -51 422q-24 -205 -54 -422h105zM240 1015h62q0 -87 -31 -119t-101 -32q-78 0 -107 31t-29 120h61q1 -68 18 -89t55 -21q36 0 53.5 21.5t18.5 88.5z" />
<glyph unicode="&#x103;" horiz-adv-x="284" d="M253 0h-63q-4 13 -4 37q-25 -46 -74 -46q-89 0 -89 98v91q0 44 11 75t36.5 53t48 34t63.5 29v135q0 54 -45 54q-26 0 -35.5 -13t-9.5 -41v-130h-61v131q0 122 108 122q109 0 109 -122v-436q0 -52 5 -71zM182 97v219q-57 -20 -74.5 -50t-17.5 -91v-66q0 -51 47 -51 q35 0 45 39zM214 811h62q0 -87 -31 -119t-101 -32q-78 0 -107 31t-29 120h61q1 -68 18 -89t55 -21q36 0 53.5 21.5t18.5 88.5z" />
<glyph unicode="&#x104;" horiz-adv-x="335" d="M350 -38v-11q0 -50 -25.5 -75t-85.5 -25q-37 0 -60 18t-23 50q0 29 23 50t66 29l-18 140h-123l-18 -138h-74l113 823h89l107 -823q-116 -17 -116 -68q0 -13 9.5 -23t28.5 -10q49 0 49 52v11h58zM218 208q-48 394 -51 422q-24 -205 -54 -422h105z" />
<glyph unicode="&#x105;" horiz-adv-x="284" d="M282 -38v-11q0 -50 -25.5 -75t-85.5 -25q-37 0 -60 18t-23 50q0 31 26.5 52.5t75.5 28.5q-4 12 -4 37q-25 -46 -74 -46q-89 0 -89 98v91q0 44 11 75t36.5 53t48 34t63.5 29v135q0 54 -45 54q-26 0 -35.5 -13t-9.5 -41v-130h-61v131q0 122 108 122q109 0 109 -122v-436 q0 -52 5 -71q-116 -17 -116 -68q0 -13 9.5 -23t28.5 -10q49 0 49 52v11h58zM182 97v219q-57 -20 -74.5 -50t-17.5 -91v-66q0 -51 47 -51q35 0 45 39z" />
<glyph unicode="&#x106;" horiz-adv-x="309" d="M213 131v171h69v-170q0 -72 -29 -106.5t-91 -34.5q-131 0 -131 139v560q0 142 131 142q120 0 120 -140v-146h-69v145q0 34 -11.5 49t-39.5 15q-54 0 -54 -64v-560q0 -65 54 -65q27 0 39 15.5t12 49.5zM170 860h-66l112 161h89z" />
<glyph unicode="&#x107;" horiz-adv-x="283" d="M190 116v137h64v-138q0 -58 -27.5 -91t-82.5 -33t-84 34t-29 92v384q0 59 29 93.5t84 34.5t81.5 -34t26.5 -93v-134h-62v135q0 55 -46 55t-46 -56v-385q0 -56 46 -56t46 55zM157 656h-66l112 161h89z" />
<glyph unicode="&#x108;" horiz-adv-x="309" d="M213 131v171h69v-170q0 -72 -29 -106.5t-91 -34.5q-131 0 -131 139v560q0 142 131 142q120 0 120 -140v-146h-69v145q0 34 -11.5 49t-39.5 15q-54 0 -54 -64v-560q0 -65 54 -65q27 0 39 15.5t12 49.5zM301 860h-67l-79 123l-82 -123h-64l108 161h80z" />
<glyph unicode="&#x109;" horiz-adv-x="283" d="M190 116v137h64v-138q0 -58 -27.5 -91t-82.5 -33t-84 34t-29 92v384q0 59 29 93.5t84 34.5t81.5 -34t26.5 -93v-134h-62v135q0 55 -46 55t-46 -56v-385q0 -56 46 -56t46 55zM288 656h-67l-79 123l-82 -123h-64l108 161h80z" />
<glyph unicode="&#x10a;" horiz-adv-x="309" d="M213 131v171h69v-170q0 -72 -29 -106.5t-91 -34.5q-131 0 -131 139v560q0 142 131 142q120 0 120 -140v-146h-69v145q0 34 -11.5 49t-39.5 15q-54 0 -54 -64v-560q0 -65 54 -65q27 0 39 15.5t12 49.5zM189 872h-69v125h69v-125z" />
<glyph unicode="&#x10b;" horiz-adv-x="283" d="M190 116v137h64v-138q0 -58 -27.5 -91t-82.5 -33t-84 34t-29 92v384q0 59 29 93.5t84 34.5t81.5 -34t26.5 -93v-134h-62v135q0 55 -46 55t-46 -56v-385q0 -56 46 -56t46 55zM176 668h-69v125h69v-125z" />
<glyph unicode="&#x10c;" horiz-adv-x="309" d="M213 131v171h69v-170q0 -72 -29 -106.5t-91 -34.5q-131 0 -131 139v560q0 142 131 142q120 0 120 -140v-146h-69v145q0 34 -11.5 49t-39.5 15q-54 0 -54 -64v-560q0 -65 54 -65q27 0 39 15.5t12 49.5zM193 860h-80l-104 161h67l80 -123l81 123h64z" />
<glyph unicode="&#x10d;" horiz-adv-x="283" d="M190 116v137h64v-138q0 -58 -27.5 -91t-82.5 -33t-84 34t-29 92v384q0 59 29 93.5t84 34.5t81.5 -34t26.5 -93v-134h-62v135q0 55 -46 55t-46 -56v-385q0 -56 46 -56t46 55zM180 656h-80l-104 161h67l80 -123l81 123h64z" />
<glyph unicode="&#x10e;" horiz-adv-x="326" d="M219 140v541q0 65 -54 65h-52v-671h52q54 0 54 65zM165 0h-128v823h128q64 0 97 -37t33 -104v-542q0 -140 -130 -140zM195 860h-80l-104 161h67l80 -123l81 123h64z" />
<glyph unicode="&#x10f;" horiz-adv-x="375" d="M197 107v411q-15 41 -54 41q-23 0 -33 -12t-10 -39v-390q0 -28 10 -40t33 -12q39 0 54 41zM265 0h-58q-2 28 -2 46q-22 -53 -86 -53q-88 0 -88 116v406q0 60 22 87t69 27q48 0 75 -40v234h68v-823zM321 638h-8v33h6q17 0 17 18v31h-33v103h72v-129q0 -56 -54 -56z" />
<glyph unicode="&#x110;" horiz-adv-x="324" d="M164 0h-129v381h-25v76h25v366h129q63 0 96 -37t33 -104v-542q0 -140 -129 -140zM218 140v542q0 64 -54 64h-53v-289h60v-76h-60v-306h53q54 0 54 65z" />
<glyph unicode="&#x111;" horiz-adv-x="303" d="M265 0h-58q-2 28 -2 46q-22 -53 -86 -53q-88 0 -88 116v406q0 60 22 87t69 27q48 0 75 -40v111h-132v59h132v64h68v-64h30v-59h-30v-700zM197 107v411q-15 41 -54 41q-23 0 -33 -12t-10 -39v-390q0 -28 10 -40t33 -12q39 0 54 41z" />
<glyph unicode="&#x112;" d="M260 0h-223v823h218v-77h-142v-289h100v-76h-100v-306h147v-75zM255 904h-230v59h230v-59z" />
<glyph unicode="&#x113;" d="M184 353v149q0 55 -46 55q-43 0 -43 -55v-149h89zM184 116v136h65v-136q0 -125 -111 -125q-107 0 -107 125v386q0 127 107 127q111 0 111 -127v-199h-154v-187q0 -55 43 -55q46 0 46 55zM255 700h-230v59h230v-59z" />
<glyph unicode="&#x114;" d="M260 0h-223v823h218v-77h-142v-289h100v-76h-100v-306h147v-75zM212 1015h62q0 -87 -31 -119t-101 -32q-78 0 -107 31t-29 120h61q1 -68 18 -89t55 -21q36 0 53.5 21.5t18.5 88.5z" />
<glyph unicode="&#x115;" d="M184 353v149q0 55 -46 55q-43 0 -43 -55v-149h89zM184 116v136h65v-136q0 -125 -111 -125q-107 0 -107 125v386q0 127 107 127q111 0 111 -127v-199h-154v-187q0 -55 43 -55q46 0 46 55zM212 811h62q0 -87 -31 -119t-101 -32q-78 0 -107 31t-29 120h61q1 -68 18 -89 t55 -21q36 0 53.5 21.5t18.5 88.5z" />
<glyph unicode="&#x116;" d="M260 0h-223v823h218v-77h-142v-289h100v-76h-100v-306h147v-75zM184 872h-69v125h69v-125z" />
<glyph unicode="&#x117;" d="M184 353v149q0 55 -46 55q-43 0 -43 -55v-149h89zM184 116v136h65v-136q0 -125 -111 -125q-107 0 -107 125v386q0 127 107 127q111 0 111 -127v-199h-154v-187q0 -55 43 -55q46 0 46 55zM174 668h-69v125h69v-125z" />
<glyph unicode="&#x118;" d="M289 -38v-11q0 -50 -25.5 -75t-85.5 -25q-37 0 -60 18t-23 50q0 31 27.5 53t78.5 28h-164v823h218v-77h-142v-289h100v-76h-100v-306h147v-75q-116 -17 -116 -68q0 -13 9.5 -23t28.5 -10q49 0 49 52v11h58z" />
<glyph unicode="&#x119;" d="M248 -38v-11q0 -50 -25.5 -75t-85.5 -25q-37 0 -60 18t-23 50q0 52 66 73q-89 11 -89 124v386q0 127 107 127q111 0 111 -127v-199h-154v-187q0 -55 43 -55q46 0 46 55v136h65v-136q0 -100 -82 -122q-28 -8 -46 -24.5t-18 -37.5q0 -13 9.5 -23t28.5 -10q49 0 49 52v11h58 zM184 353v149q0 55 -46 55q-43 0 -43 -55v-149h89z" />
<glyph unicode="&#x11a;" d="M260 0h-223v823h218v-77h-142v-289h100v-76h-100v-306h147v-75zM185 860h-80l-104 161h67l80 -123l81 123h64z" />
<glyph unicode="&#x11b;" d="M184 353v149q0 55 -46 55q-43 0 -43 -55v-149h89zM184 116v136h65v-136q0 -125 -111 -125q-107 0 -107 125v386q0 127 107 127q111 0 111 -127v-199h-154v-187q0 -55 43 -55q46 0 46 55zM178 656h-80l-104 161h67l80 -123l81 123h64z" />
<glyph unicode="&#x11c;" horiz-adv-x="322" d="M292 -5h-12l-25 45q-25 -49 -100 -49q-124 0 -124 140v560q0 68 33 104.5t97 36.5q125 0 125 -141v-145h-68v145q0 64 -57 64q-54 0 -54 -64v-560q0 -31 15 -48t38 -17q54 0 59 59v187h-63v72h136v-389zM307 860h-67l-79 123l-82 -123h-64l108 161h80z" />
<glyph unicode="&#x11d;" horiz-adv-x="303" d="M199 -35v103q-24 -39 -78 -39q-47 0 -68.5 26.5t-21.5 86.5v367q0 116 88 116q59 0 86 -53q0 17 2 47h58v-651q0 -117 -113 -117q-62 0 -87.5 29t-25.5 88v25h62v-28q0 -54 50 -54q48 0 48 54zM199 135v376q-15 41 -56 41q-44 0 -44 -47v-361q0 -26 10 -37.5t34 -11.5 q41 0 56 40zM298 656h-67l-79 123l-82 -123h-64l108 161h80z" />
<glyph unicode="&#x11e;" horiz-adv-x="322" d="M292 -5h-12l-25 45q-25 -49 -100 -49q-124 0 -124 140v560q0 68 33 104.5t97 36.5q125 0 125 -141v-145h-68v145q0 64 -57 64q-54 0 -54 -64v-560q0 -31 15 -48t38 -17q54 0 59 59v187h-63v72h136v-389zM233 1015h62q0 -87 -31 -119t-101 -32q-78 0 -107 31t-29 120h61 q1 -68 18 -89t55 -21q36 0 53.5 21.5t18.5 88.5z" />
<glyph unicode="&#x11f;" horiz-adv-x="303" d="M199 -35v103q-24 -39 -78 -39q-47 0 -68.5 26.5t-21.5 86.5v367q0 116 88 116q59 0 86 -53q0 17 2 47h58v-651q0 -117 -113 -117q-62 0 -87.5 29t-25.5 88v25h62v-28q0 -54 50 -54q48 0 48 54zM199 135v376q-15 41 -56 41q-44 0 -44 -47v-361q0 -26 10 -37.5t34 -11.5 q41 0 56 40zM224 811h62q0 -87 -31 -119t-101 -32q-78 0 -107 31t-29 120h61q1 -68 18 -89t55 -21q36 0 53.5 21.5t18.5 88.5z" />
<glyph unicode="&#x120;" horiz-adv-x="322" d="M292 -5h-12l-25 45q-25 -49 -100 -49q-124 0 -124 140v560q0 68 33 104.5t97 36.5q125 0 125 -141v-145h-68v145q0 64 -57 64q-54 0 -54 -64v-560q0 -31 15 -48t38 -17q54 0 59 59v187h-63v72h136v-389zM195 872h-69v125h69v-125z" />
<glyph unicode="&#x121;" horiz-adv-x="303" d="M199 -35v103q-24 -39 -78 -39q-47 0 -68.5 26.5t-21.5 86.5v367q0 116 88 116q59 0 86 -53q0 17 2 47h58v-651q0 -117 -113 -117q-62 0 -87.5 29t-25.5 88v25h62v-28q0 -54 50 -54q48 0 48 54zM199 135v376q-15 41 -56 41q-44 0 -44 -47v-361q0 -26 10 -37.5t34 -11.5 q41 0 56 40zM186 668h-69v125h69v-125z" />
<glyph unicode="&#x122;" horiz-adv-x="322" d="M292 -5h-12l-25 45q-25 -49 -100 -49q-124 0 -124 140v560q0 68 33 104.5t97 36.5q125 0 125 -141v-145h-68v145q0 64 -57 64q-54 0 -54 -64v-560q0 -31 15 -48t38 -17q54 0 59 59v187h-63v72h136v-389zM151 -149h-11v25h8q11 0 11 12v20h-27v72h58v-90q0 -39 -39 -39z " />
<glyph unicode="&#x123;" horiz-adv-x="303" d="M199 -35v103q-24 -39 -78 -39q-47 0 -68.5 26.5t-21.5 86.5v367q0 116 88 116q59 0 86 -53q0 17 2 47h58v-651q0 -117 -113 -117q-62 0 -87.5 29t-25.5 88v25h62v-28q0 -54 50 -54q48 0 48 54zM199 135v376q-15 41 -56 41q-44 0 -44 -47v-361q0 -26 10 -37.5t34 -11.5 q41 0 56 40zM153 784h11v-25h-8q-11 0 -11 -12v-20h27v-72h-58v90q0 39 39 39z" />
<glyph unicode="&#x124;" horiz-adv-x="332" d="M295 0h-76v381h-106v-381h-76v823h76v-367h106v367h76v-823zM312 860h-67l-79 123l-82 -123h-64l108 161h80z" />
<glyph unicode="&#x125;" horiz-adv-x="302" d="M268 0h-69v511q0 27 -9 38.5t-31 11.5q-38 0 -53 -38v-523h-69v823h69v-239q30 45 82 45q41 0 60.5 -27.5t19.5 -86.5v-515zM299 860h-67l-79 123l-82 -123h-64l108 161h80z" />
<glyph unicode="&#x126;" horiz-adv-x="332" d="M295 0h-76v381h-106v-381h-76v823h76v-158h106v158h76v-823zM113 456h106v150h-106v-150z" />
<glyph unicode="&#x127;" horiz-adv-x="302" d="M235 700h-129v-116q30 45 82 45q41 0 60.5 -27.5t19.5 -86.5v-515h-69v511q0 27 -9 38.5t-31 11.5q-38 0 -53 -38v-523h-69v700h-32v59h32v64h69v-64h129v-59z" />
<glyph unicode="&#x128;" horiz-adv-x="154" d="M115 0h-76v823h76v-823zM197 978v-61q-21 -26 -61 -26q-23 0 -61 16.5t-60 16.5q-35 0 -57 -31v61q23 27 60 27q25 0 62.5 -16.5t59.5 -16.5q34 0 57 30z" />
<glyph unicode="&#x129;" horiz-adv-x="186" d="M128 0h-69v619h69v-619zM213 774v-61q-21 -26 -61 -26q-23 0 -61 16.5t-60 16.5q-35 0 -57 -31v61q23 27 60 27q25 0 62.5 -16.5t59.5 -16.5q34 0 57 30z" />
<glyph unicode="&#x12a;" horiz-adv-x="154" d="M115 0h-76v823h76v-823zM192 904h-230v59h230v-59z" />
<glyph unicode="&#x12b;" horiz-adv-x="188" d="M128 0h-69v619h69v-619zM209 700h-230v59h230v-59z" />
<glyph unicode="&#x12c;" horiz-adv-x="154" d="M115 0h-76v823h76v-823zM149 1015h62q0 -87 -31 -119t-101 -32q-78 0 -107 31t-29 120h61q1 -68 18 -89t55 -21q36 0 53.5 21.5t18.5 88.5z" />
<glyph unicode="&#x12d;" horiz-adv-x="209" d="M139 0h-69v619h69v-619zM177 811h62q0 -87 -31 -119t-101 -32q-78 0 -107 31t-29 120h61q1 -68 18 -89t55 -21q36 0 53.5 21.5t18.5 88.5z" />
<glyph unicode="&#x12e;" horiz-adv-x="154" d="M144 -38v-11q0 -50 -25.5 -75t-85.5 -25q-37 0 -60 18t-23 50q0 29 23 50t66 29v825h76v-823q-116 -17 -116 -68q0 -13 9.5 -23t28.5 -10q49 0 49 52v11h58z" />
<glyph unicode="&#x12f;" horiz-adv-x="147" d="M137 -38v-11q0 -50 -25.5 -75t-85.5 -25q-37 0 -60 18t-23 50q0 30 25 51.5t71 28.5v620h69v-619q-116 -17 -116 -68q0 -13 9.5 -23t28.5 -10q49 0 49 52v11h58zM108 698h-69v125h69v-125z" />
<glyph unicode="&#x130;" horiz-adv-x="154" d="M115 0h-76v823h76v-823zM111 872h-69v125h69v-125z" />
<glyph unicode="&#x131;" horiz-adv-x="147" d="M108 0h-69v619h69v-619z" />
<glyph unicode="&#x132;" horiz-adv-x="371" d="M115 0h-76v823h76v-823zM164 1v76q18 -7 48 -7q49 0 49 64v689h76v-689q0 -140 -125 -140q-30 0 -48 7z" />
<glyph unicode="&#x133;" horiz-adv-x="310" d="M108 698h-69v125h69v-125zM108 0h-69v619h69v-619zM115 -140v68q15 -4 36 -4q50 0 50 63v632h69v-632q0 -131 -119 -131q-16 0 -36 4zM270 698h-69v125h69v-125z" />
<glyph unicode="&#x134;" horiz-adv-x="217" d="M10 1v76q18 -7 48 -7q49 0 49 64v689h76v-689q0 -140 -125 -140q-30 0 -48 7zM285 860h-67l-79 123l-82 -123h-64l108 161h80z" />
<glyph unicode="&#x135;" horiz-adv-x="221" d="M-6 -140v68q15 -4 36 -4q50 0 50 63v632h69v-632q0 -131 -119 -131q-16 0 -36 4zM254 656h-67l-79 123l-82 -123h-64l108 161h80z" />
<glyph unicode="&#x136;" horiz-adv-x="349" d="M344 0h-87l-144 405v-405h-76v823h76v-355l139 355h82l-156 -375zM174 -149h-11v25h8q11 0 11 12v20h-27v72h58v-90q0 -39 -39 -39z" />
<glyph unicode="&#x137;" horiz-adv-x="300" d="M292 0h-76l-112 318v-318h-67v823h67v-471l112 267h73l-121 -274zM150 -149h-11v25h8q11 0 11 12v20h-27v72h58v-90q0 -39 -39 -39z" />
<glyph unicode="&#x139;" horiz-adv-x="270" d="M260 0h-223v823h76v-748h147v-75zM94 860h-66l112 161h89z" />
<glyph unicode="&#x13a;" horiz-adv-x="143" d="M106 0h-69v823h69v-823zM87 860h-66l112 161h89z" />
<glyph unicode="&#x13b;" horiz-adv-x="270" d="M260 0h-223v823h76v-748h147v-75zM140 -149h-11v25h8q11 0 11 12v20h-27v72h58v-90q0 -39 -39 -39z" />
<glyph unicode="&#x13c;" horiz-adv-x="143" d="M106 0h-69v823h69v-823zM64 -149h-11v25h8q11 0 11 12v20h-27v72h58v-90q0 -39 -39 -39z" />
<glyph unicode="&#x13d;" horiz-adv-x="270" d="M260 0h-223v823h76v-748h147v-75zM210 638h-8v33h6q17 0 17 18v31h-33v103h72v-129q0 -56 -54 -56z" />
<glyph unicode="&#x13e;" horiz-adv-x="215" d="M106 0h-69v823h69v-823zM161 638h-8v33h6q17 0 17 18v31h-33v103h72v-129q0 -56 -54 -56z" />
<glyph unicode="&#x13f;" horiz-adv-x="270" d="M260 0h-223v823h76v-748h147v-75zM220 328h-69v125h69v-125z" />
<glyph unicode="&#x140;" horiz-adv-x="212" d="M106 0h-69v823h69v-823zM212 316h-69v125h69v-125z" />
<glyph unicode="&#x141;" horiz-adv-x="272" d="M261 0h-223v497l-39 -24l-26 43l65 39v268h76v-223l63 39l25 -42l-88 -54v-468h147v-75z" />
<glyph unicode="&#x142;" horiz-adv-x="203" d="M137 0h-69v513l-59 -35l-25 41l84 50v254h69v-213l57 35l26 -41l-83 -51v-553z" />
<glyph unicode="&#x143;" horiz-adv-x="353" d="M318 0h-76l-142 601q1 -122 1 -365v-236h-66v823h91l126 -603q-1 112 -1 333v270h67v-823zM192 860h-66l112 161h89z" />
<glyph unicode="&#x144;" horiz-adv-x="302" d="M268 0h-69v511q0 27 -9 38.5t-31 11.5q-38 0 -53 -38v-523h-69v619h58q3 -23 3 -47q29 57 89 57q81 0 81 -114v-515zM166 656h-66l112 161h89z" />
<glyph unicode="&#x145;" horiz-adv-x="353" d="M318 0h-76l-142 601q1 -122 1 -365v-236h-66v823h91l126 -603q-1 112 -1 333v270h67v-823zM166 -149h-11v25h8q11 0 11 12v20h-27v72h58v-90q0 -39 -39 -39z" />
<glyph unicode="&#x146;" horiz-adv-x="302" d="M268 0h-69v511q0 27 -9 38.5t-31 11.5q-38 0 -53 -38v-523h-69v619h58q3 -23 3 -47q29 57 89 57q81 0 81 -114v-515zM141 -149h-11v25h8q11 0 11 12v20h-27v72h58v-90q0 -39 -39 -39z" />
<glyph unicode="&#x147;" horiz-adv-x="353" d="M318 0h-76l-142 601q1 -122 1 -365v-236h-66v823h91l126 -603q-1 112 -1 333v270h67v-823zM215 860h-80l-104 161h67l80 -123l81 123h64z" />
<glyph unicode="&#x148;" horiz-adv-x="302" d="M268 0h-69v511q0 27 -9 38.5t-31 11.5q-38 0 -53 -38v-523h-69v619h58q3 -23 3 -47q29 57 89 57q81 0 81 -114v-515zM189 656h-80l-104 161h67l80 -123l81 123h64z" />
<glyph unicode="&#x14a;" horiz-adv-x="353" d="M163 -145v68q15 -4 36 -4q45 0 51 46l-150 636q1 -122 1 -601h-66v823h91l126 -603q-1 112 -1 603h67v-841q0 -131 -119 -131q-16 0 -36 4z" />
<glyph unicode="&#x14b;" horiz-adv-x="302" d="M113 -145v68q15 -4 36 -4q50 0 50 63v529q0 27 -9 38.5t-31 11.5q-38 0 -53 -38v-523h-69v619h58q3 -23 3 -47q29 57 89 57q81 0 81 -114v-533q0 -131 -119 -131q-16 0 -36 4z" />
<glyph unicode="&#x14c;" horiz-adv-x="321" d="M31 131v561q0 140 129 140q130 0 130 -140v-561q0 -140 -130 -140q-129 0 -129 140zM214 131v561q0 63 -54 63q-53 0 -53 -63v-561q0 -65 53 -65q54 0 54 65zM275 904h-230v59h230v-59z" />
<glyph unicode="&#x14d;" horiz-adv-x="290" d="M31 114v391q0 124 114 124q56 0 85 -32t29 -92v-391q0 -60 -29 -91.5t-85 -31.5q-114 0 -114 123zM192 116v387q0 27 -10.5 41t-36.5 14t-36.5 -14t-10.5 -41v-389q0 -27 10.5 -40t36.5 -13q27 0 37 13t10 42zM260 700h-230v59h230v-59z" />
<glyph unicode="&#x14e;" horiz-adv-x="321" d="M31 131v561q0 140 129 140q130 0 130 -140v-561q0 -140 -130 -140q-129 0 -129 140zM214 131v561q0 63 -54 63q-53 0 -53 -63v-561q0 -65 53 -65q54 0 54 65zM233 1015h62q0 -87 -31 -119t-101 -32q-78 0 -107 31t-29 120h61q1 -68 18 -89t55 -21q36 0 53.5 21.5 t18.5 88.5z" />
<glyph unicode="&#x14f;" horiz-adv-x="290" d="M31 114v391q0 124 114 124q56 0 85 -32t29 -92v-391q0 -60 -29 -91.5t-85 -31.5q-114 0 -114 123zM192 116v387q0 27 -10.5 41t-36.5 14t-36.5 -14t-10.5 -41v-389q0 -27 10.5 -40t36.5 -13q27 0 37 13t10 42zM217 811h62q0 -87 -31 -119t-101 -32q-78 0 -107 31t-29 120 h61q1 -68 18 -89t55 -21q36 0 53.5 21.5t18.5 88.5z" />
<glyph unicode="&#x150;" horiz-adv-x="321" d="M31 131v561q0 140 129 140q130 0 130 -140v-561q0 -140 -130 -140q-129 0 -129 140zM214 131v561q0 63 -54 63q-53 0 -53 -63v-561q0 -65 53 -65q54 0 54 65zM258 860h-67l112 161h90zM95 860h-66l112 161h89z" />
<glyph unicode="&#x151;" horiz-adv-x="290" d="M31 114v391q0 124 114 124q56 0 85 -32t29 -92v-391q0 -60 -29 -91.5t-85 -31.5q-114 0 -114 123zM192 116v387q0 27 -10.5 41t-36.5 14t-36.5 -14t-10.5 -41v-389q0 -27 10.5 -40t36.5 -13q27 0 37 13t10 42zM242 656h-67l112 161h90zM79 656h-66l112 161h89z" />
<glyph unicode="&#x152;" horiz-adv-x="437" d="M417 0h-202q-23 -9 -55 -9q-129 0 -129 140v561q0 140 129 140q32 0 55 -9h197v-77h-142v-289h100v-76h-100v-306h147v-75zM194 71v679q-11 5 -34 5q-53 0 -53 -63v-561q0 -65 53 -65q19 0 34 5z" />
<glyph unicode="&#x153;" horiz-adv-x="444" d="M348 116v136h65v-136q0 -125 -111 -125q-50 0 -77 28q-27 -28 -80 -28q-114 0 -114 123v391q0 124 114 124q53 0 81 -31q28 31 76 31q111 0 111 -127v-199h-154v-187q0 -55 43 -55q46 0 46 55zM192 116v387q0 27 -10.5 41t-36.5 14t-36.5 -14t-10.5 -41v-389 q0 -27 10.5 -40t36.5 -13q27 0 37 13t10 42zM348 353v149q0 55 -46 55q-43 0 -43 -55v-149h89z" />
<glyph unicode="&#x154;" horiz-adv-x="331" d="M313 0h-83q-30 225 -58 374q-6 -1 -18 -1h-41v-373h-76v823h125q73 0 108 -34.5t35 -113.5v-164q0 -90 -61 -121q31 -151 69 -390zM228 510v155q0 45 -13.5 63t-52.5 18h-49v-304h50q35 0 50 16t15 52zM181 860h-66l112 161h89z" />
<glyph unicode="&#x155;" horiz-adv-x="207" d="M106 0h-69v619h58q3 -23 3 -45q24 51 75 51q11 0 21 -4v-77q-10 7 -31 7q-40 0 -57 -37v-514zM119 656h-66l112 161h89z" />
<glyph unicode="&#x156;" horiz-adv-x="331" d="M313 0h-83q-30 225 -58 374q-6 -1 -18 -1h-41v-373h-76v823h125q73 0 108 -34.5t35 -113.5v-164q0 -90 -61 -121q31 -151 69 -390zM228 510v155q0 45 -13.5 63t-52.5 18h-49v-304h50q35 0 50 16t15 52zM165 -149h-11v25h8q11 0 11 12v20h-27v72h58v-90q0 -39 -39 -39z " />
<glyph unicode="&#x157;" horiz-adv-x="207" d="M106 0h-69v619h58q3 -23 3 -45q24 51 75 51q11 0 21 -4v-77q-10 7 -31 7q-40 0 -57 -37v-514zM63 -149h-11v25h8q11 0 11 12v20h-27v72h58v-90q0 -39 -39 -39z" />
<glyph unicode="&#x158;" horiz-adv-x="331" d="M313 0h-83q-30 225 -58 374q-6 -1 -18 -1h-41v-373h-76v823h125q73 0 108 -34.5t35 -113.5v-164q0 -90 -61 -121q31 -151 69 -390zM228 510v155q0 45 -13.5 63t-52.5 18h-49v-304h50q35 0 50 16t15 52zM204 860h-80l-104 161h67l80 -123l81 123h64z" />
<glyph unicode="&#x159;" horiz-adv-x="207" d="M106 0h-69v619h58q3 -23 3 -45q24 51 75 51q11 0 21 -4v-77q-10 7 -31 7q-40 0 -57 -37v-514zM142 656h-80l-104 161h67l80 -123l81 123h64z" />
<glyph unicode="&#x15a;" horiz-adv-x="310" d="M207 127v117q0 36 -4.5 51t-20.5 34q-19 22 -61 64.5t-67 72.5q-18 21 -22.5 43.5t-4.5 63.5v123q0 136 128 136q67 0 96 -33t29 -103v-150h-71v140q0 69 -52 69q-53 0 -53 -59v-122q0 -42 18 -64q22 -27 64 -69.5t61 -64.5q22 -25 29 -52.5t7 -78.5v-118 q0 -136 -128 -136t-128 136v175h73v-164q0 -72 53 -72q54 0 54 61zM170 860h-66l112 161h89z" />
<glyph unicode="&#x15b;" horiz-adv-x="278" d="M181 108v71q0 36 -30 72q-14 17 -47 47.5t-45 45.5q-19 22 -25.5 43.5t-6.5 58.5v64q0 62 27.5 90.5t82.5 28.5q61 0 85.5 -28t24.5 -91v-101h-63v101q0 23 -13 36.5t-32 13.5q-45 0 -45 -50v-73q0 -21 5.5 -34t22.5 -31q12 -13 44 -41t45 -43q23 -27 31 -52t8 -66v-67 q0 -58 -28.5 -85t-86.5 -27q-108 0 -108 115v101h62v-99q0 -23 13 -36.5t34 -13.5q45 0 45 50zM154 656h-66l112 161h89z" />
<glyph unicode="&#x15c;" horiz-adv-x="310" d="M207 127v117q0 36 -4.5 51t-20.5 34q-19 22 -61 64.5t-67 72.5q-18 21 -22.5 43.5t-4.5 63.5v123q0 136 128 136q67 0 96 -33t29 -103v-150h-71v140q0 69 -52 69q-53 0 -53 -59v-122q0 -42 18 -64q22 -27 64 -69.5t61 -64.5q22 -25 29 -52.5t7 -78.5v-118 q0 -136 -128 -136t-128 136v175h73v-164q0 -72 53 -72q54 0 54 61zM301 860h-67l-79 123l-82 -123h-64l108 161h80z" />
<glyph unicode="&#x15d;" horiz-adv-x="278" d="M181 108v71q0 36 -30 72q-14 17 -47 47.5t-45 45.5q-19 22 -25.5 43.5t-6.5 58.5v64q0 62 27.5 90.5t82.5 28.5q61 0 85.5 -28t24.5 -91v-101h-63v101q0 23 -13 36.5t-32 13.5q-45 0 -45 -50v-73q0 -21 5.5 -34t22.5 -31q12 -13 44 -41t45 -43q23 -27 31 -52t8 -66v-67 q0 -58 -28.5 -85t-86.5 -27q-108 0 -108 115v101h62v-99q0 -23 13 -36.5t34 -13.5q45 0 45 50zM285 656h-67l-79 123l-82 -123h-64l108 161h80z" />
<glyph unicode="&#x15e;" horiz-adv-x="310" d="M207 127v117q0 36 -4.5 51t-20.5 34q-19 22 -61 64.5t-67 72.5q-18 21 -22.5 43.5t-4.5 63.5v123q0 136 128 136q67 0 96 -33t29 -103v-150h-71v140q0 69 -52 69q-53 0 -53 -59v-122q0 -42 18 -64q22 -27 64 -69.5t61 -64.5q22 -25 29 -52.5t7 -78.5v-118 q0 -136 -128 -136t-128 136v175h73v-164q0 -72 53 -72q54 0 54 61zM145 -149h-11v25h8q11 0 11 12v20h-27v72h58v-90q0 -39 -39 -39z" />
<glyph unicode="&#x15f;" horiz-adv-x="278" d="M181 108v71q0 36 -30 72q-14 17 -47 47.5t-45 45.5q-19 22 -25.5 43.5t-6.5 58.5v64q0 62 27.5 90.5t82.5 28.5q61 0 85.5 -28t24.5 -91v-101h-63v101q0 23 -13 36.5t-32 13.5q-45 0 -45 -50v-73q0 -21 5.5 -34t22.5 -31q12 -13 44 -41t45 -43q23 -27 31 -52t8 -66v-67 q0 -58 -28.5 -85t-86.5 -27q-108 0 -108 115v101h62v-99q0 -23 13 -36.5t34 -13.5q45 0 45 50zM129 -149h-11v25h8q11 0 11 12v20h-27v72h58v-90q0 -39 -39 -39z" />
<glyph unicode="&#x160;" horiz-adv-x="310" d="M207 127v117q0 36 -4.5 51t-20.5 34q-19 22 -61 64.5t-67 72.5q-18 21 -22.5 43.5t-4.5 63.5v123q0 136 128 136q67 0 96 -33t29 -103v-150h-71v140q0 69 -52 69q-53 0 -53 -59v-122q0 -42 18 -64q22 -27 64 -69.5t61 -64.5q22 -25 29 -52.5t7 -78.5v-118 q0 -136 -128 -136t-128 136v175h73v-164q0 -72 53 -72q54 0 54 61zM193 860h-80l-104 161h67l80 -123l81 123h64z" />
<glyph unicode="&#x161;" horiz-adv-x="278" d="M181 108v71q0 36 -30 72q-14 17 -47 47.5t-45 45.5q-19 22 -25.5 43.5t-6.5 58.5v64q0 62 27.5 90.5t82.5 28.5q61 0 85.5 -28t24.5 -91v-101h-63v101q0 23 -13 36.5t-32 13.5q-45 0 -45 -50v-73q0 -21 5.5 -34t22.5 -31q12 -13 44 -41t45 -43q23 -27 31 -52t8 -66v-67 q0 -58 -28.5 -85t-86.5 -27q-108 0 -108 115v101h62v-99q0 -23 13 -36.5t34 -13.5q45 0 45 50zM177 656h-80l-104 161h67l80 -123l81 123h64z" />
<glyph unicode="&#x162;" horiz-adv-x="281" d="M178 0h-75v746h-92v77h259v-77h-92v-746zM132 -149h-11v25h8q11 0 11 12v20h-27v72h58v-90q0 -39 -39 -39z" />
<glyph unicode="&#x163;" horiz-adv-x="191" d="M180 51v-55q-12 -5 -32 -5q-54 0 -81.5 33.5t-27.5 94.5v439h-29v61h29v196h69v-196h70v-61h-70v-439q0 -38 13.5 -53.5t45.5 -15.5q9 0 13 1zM103 -149h-11v25h8q11 0 11 12v20h-27v72h58v-90q0 -39 -39 -39z" />
<glyph unicode="&#x164;" horiz-adv-x="281" d="M178 0h-75v746h-92v77h259v-77h-92v-746zM179 860h-80l-104 161h67l80 -123l81 123h64z" />
<glyph unicode="&#x165;" horiz-adv-x="220" d="M180 51v-55q-12 -5 -32 -5q-54 0 -81.5 33.5t-27.5 94.5v439h-29v61h29v196h69v-196h70v-61h-70v-439q0 -38 13.5 -53.5t45.5 -15.5q9 0 13 1zM166 638h-8v33h6q17 0 17 18v31h-33v103h72v-129q0 -56 -54 -56z" />
<glyph unicode="&#x166;" horiz-adv-x="281" d="M178 0h-75v399h-52v59h52v288h-92v77h259v-77h-92v-288h51v-59h-51v-399z" />
<glyph unicode="&#x167;" horiz-adv-x="191" d="M174 295h-66v-176q0 -38 13.5 -53.5t45.5 -15.5q9 0 13 1v-55q-12 -5 -32 -5q-54 0 -81.5 33.5t-27.5 94.5v176h-23v59h23v204h-29v61h29v196h69v-196h70v-61h-70v-204h66v-59z" />
<glyph unicode="&#x168;" horiz-adv-x="326" d="M216 131v692h76v-692q0 -140 -129 -140t-129 140v692h76v-692q0 -65 53 -65t53 65zM282 978v-61q-21 -26 -61 -26q-23 0 -61 16.5t-60 16.5q-35 0 -57 -31v61q23 27 60 27q25 0 62.5 -16.5t59.5 -16.5q34 0 57 30z" />
<glyph unicode="&#x169;" horiz-adv-x="300" d="M263 0h-59q-2 28 -2 45q-30 -52 -88 -52q-80 0 -80 107v519h69v-508q0 -27 9 -38.5t29 -11.5q39 0 53 37v521h69v-619zM270 774v-61q-21 -26 -61 -26q-23 0 -61 16.5t-60 16.5q-35 0 -57 -31v61q23 27 60 27q25 0 62.5 -16.5t59.5 -16.5q34 0 57 30z" />
<glyph unicode="&#x16a;" horiz-adv-x="326" d="M216 131v692h76v-692q0 -140 -129 -140t-129 140v692h76v-692q0 -65 53 -65t53 65zM278 904h-230v59h230v-59z" />
<glyph unicode="&#x16b;" horiz-adv-x="300" d="M263 0h-59q-2 28 -2 45q-30 -52 -88 -52q-80 0 -80 107v519h69v-508q0 -27 9 -38.5t29 -11.5q39 0 53 37v521h69v-619zM265 700h-230v59h230v-59z" />
<glyph unicode="&#x16c;" horiz-adv-x="326" d="M216 131v692h76v-692q0 -140 -129 -140t-129 140v692h76v-692q0 -65 53 -65t53 65zM235 1015h62q0 -87 -31 -119t-101 -32q-78 0 -107 31t-29 120h61q1 -68 18 -89t55 -21q36 0 53.5 21.5t18.5 88.5z" />
<glyph unicode="&#x16d;" horiz-adv-x="300" d="M263 0h-59q-2 28 -2 45q-30 -52 -88 -52q-80 0 -80 107v519h69v-508q0 -27 9 -38.5t29 -11.5q39 0 53 37v521h69v-619zM222 811h62q0 -87 -31 -119t-101 -32q-78 0 -107 31t-29 120h61q1 -68 18 -89t55 -21q36 0 53.5 21.5t18.5 88.5z" />
<glyph unicode="&#x16e;" horiz-adv-x="326" d="M216 131v692h76v-692q0 -140 -129 -140t-129 140v692h76v-692q0 -65 53 -65t53 65zM259 941q0 -35 -25 -56.5t-72 -21.5q-46 0 -71 21.5t-25 56.5q0 36 25 58t71 22q47 0 72 -22t25 -58zM219 941q0 46 -57 46q-58 0 -58 -46q0 -45 58 -45q57 0 57 45z" />
<glyph unicode="&#x16f;" horiz-adv-x="300" d="M263 0h-59q-2 28 -2 45q-30 -52 -88 -52q-80 0 -80 107v519h69v-508q0 -27 9 -38.5t29 -11.5q39 0 53 37v521h69v-619zM246 737q0 -35 -25 -56.5t-72 -21.5q-46 0 -71 21.5t-25 56.5q0 36 25 58t71 22q47 0 72 -22t25 -58zM206 737q0 46 -57 46q-58 0 -58 -46 q0 -45 58 -45q57 0 57 45z" />
<glyph unicode="&#x170;" horiz-adv-x="326" d="M216 131v692h76v-692q0 -140 -129 -140t-129 140v692h76v-692q0 -65 53 -65t53 65zM260 860h-67l112 161h90zM97 860h-66l112 161h89z" />
<glyph unicode="&#x171;" horiz-adv-x="300" d="M263 0h-59q-2 28 -2 45q-30 -52 -88 -52q-80 0 -80 107v519h69v-508q0 -27 9 -38.5t29 -11.5q39 0 53 37v521h69v-619zM247 656h-67l112 161h90zM84 656h-66l112 161h89z" />
<glyph unicode="&#x172;" horiz-adv-x="326" d="M250 -38v-11q0 -50 -25.5 -75t-85.5 -25q-37 0 -60 18t-23 50q0 55 72 75q-94 16 -94 137v692h76v-692q0 -65 53 -65t53 65v692h76v-692q0 -64 -28 -97t-84 -42q-36 -6 -55.5 -22t-19.5 -38q0 -13 9.5 -23t28.5 -10q49 0 49 52v11h58z" />
<glyph unicode="&#x173;" horiz-adv-x="300" d="M292 -38v-11q0 -50 -25.5 -75t-85.5 -25q-37 0 -60 18t-23 50q0 31 27.5 53t78.5 28q-2 28 -2 45q-30 -52 -88 -52q-80 0 -80 107v519h69v-508q0 -27 9 -38.5t29 -11.5q39 0 53 37v521h69v-619q-116 -17 -116 -68q0 -13 9.5 -23t28.5 -10q49 0 49 52v11h58z" />
<glyph unicode="&#x174;" horiz-adv-x="526" d="M410 0h-92q-36 306 -58 610q-5 -66 -26.5 -279t-36.5 -331h-93l-92 823h79q44 -390 63 -647q20 229 71 647h76q45 -417 62 -647q34 349 71 647h80zM409 860h-67l-79 123l-82 -123h-64l108 161h80z" />
<glyph unicode="&#x175;" horiz-adv-x="418" d="M336 0h-83l-46 462l-52 -462h-82l-60 619h65l39 -486l57 486h67l51 -486l47 486h65zM355 656h-67l-79 123l-82 -123h-64l108 161h80z" />
<glyph unicode="&#x176;" horiz-adv-x="332" d="M202 0h-77v369l-116 454h80q53 -203 78 -339q27 144 81 339h74l-120 -454v-369zM312 860h-67l-79 123l-82 -123h-64l108 161h80z" />
<glyph unicode="&#x177;" horiz-adv-x="277" d="M19 -139v69q14 -5 34 -5q35 0 45 63l4 25l-91 606h72q38 -280 54 -466q21 209 61 466h66l-94 -627q-12 -73 -34.5 -104.5t-79.5 -31.5q-12 0 -37 5zM285 656h-67l-79 123l-82 -123h-64l108 161h80z" />
<glyph unicode="&#x178;" horiz-adv-x="332" d="M202 0h-77v369l-116 454h80q53 -203 78 -339q27 144 81 339h74l-120 -454v-369zM275 872h-69v125h69v-125zM125 872h-69v125h69v-125z" />
<glyph unicode="&#x179;" horiz-adv-x="307" d="M283 0h-258v76l182 673h-175v74h251v-69l-179 -677h179v-77zM169 860h-66l112 161h89z" />
<glyph unicode="&#x17a;" horiz-adv-x="256" d="M231 0h-206v64l141 487h-139v68h205v-64l-138 -485h137v-70zM143 656h-66l112 161h89z" />
<glyph unicode="&#x17b;" horiz-adv-x="307" d="M283 0h-258v76l182 673h-175v74h251v-69l-179 -677h179v-77zM193 872h-69v125h69v-125z" />
<glyph unicode="&#x17c;" horiz-adv-x="256" d="M231 0h-206v64l141 487h-139v68h205v-64l-138 -485h137v-70zM162 668h-69v125h69v-125z" />
<glyph unicode="&#x17d;" horiz-adv-x="307" d="M283 0h-258v76l182 673h-175v74h251v-69l-179 -677h179v-77zM197 860h-80l-104 161h67l80 -123l81 123h64z" />
<glyph unicode="&#x17e;" horiz-adv-x="256" d="M231 0h-206v64l141 487h-139v68h205v-64l-138 -485h137v-70zM166 656h-80l-104 161h67l80 -123l81 123h64z" />
<glyph unicode="&#x192;" horiz-adv-x="405" d="M17 0v61q23 -7 51 -7q35 0 49 17.5t19 63.5l49 434h-83v58h89l11 82q9 68 41 95.5t100 27.5q33 0 53 -9v-62q-21 6 -52 6q-32 0 -46 -13.5t-18 -47.5l-10 -79h105v-58h-113l-48 -440q-8 -77 -41 -107.5t-104 -30.5q-34 0 -52 9z" />
<glyph unicode="&#x218;" horiz-adv-x="310" d="M207 127v117q0 36 -4.5 51t-20.5 34q-19 22 -61 64.5t-67 72.5q-18 21 -22.5 43.5t-4.5 63.5v123q0 136 128 136q67 0 96 -33t29 -103v-150h-71v140q0 69 -52 69q-53 0 -53 -59v-122q0 -42 18 -64q22 -27 64 -69.5t61 -64.5q22 -25 29 -52.5t7 -78.5v-118 q0 -136 -128 -136t-128 136v175h73v-164q0 -72 53 -72q54 0 54 61zM145 -149h-11v25h8q11 0 11 12v20h-27v72h58v-90q0 -39 -39 -39z" />
<glyph unicode="&#x219;" horiz-adv-x="278" d="M181 108v71q0 36 -30 72q-14 17 -47 47.5t-45 45.5q-19 22 -25.5 43.5t-6.5 58.5v64q0 62 27.5 90.5t82.5 28.5q61 0 85.5 -28t24.5 -91v-101h-63v101q0 23 -13 36.5t-32 13.5q-45 0 -45 -50v-73q0 -21 5.5 -34t22.5 -31q12 -13 44 -41t45 -43q23 -27 31 -52t8 -66v-67 q0 -58 -28.5 -85t-86.5 -27q-108 0 -108 115v101h62v-99q0 -23 13 -36.5t34 -13.5q45 0 45 50zM129 -149h-11v25h8q11 0 11 12v20h-27v72h58v-90q0 -39 -39 -39z" />
<glyph unicode="&#x21a;" horiz-adv-x="281" d="M178 0h-75v746h-92v77h259v-77h-92v-746zM132 -149h-11v25h8q11 0 11 12v20h-27v72h58v-90q0 -39 -39 -39z" />
<glyph unicode="&#x21b;" horiz-adv-x="191" d="M180 51v-55q-12 -5 -32 -5q-54 0 -81.5 33.5t-27.5 94.5v439h-29v61h29v196h69v-196h70v-61h-70v-439q0 -38 13.5 -53.5t45.5 -15.5q9 0 13 1zM103 -149h-11v25h8q11 0 11 12v20h-27v72h58v-90q0 -39 -39 -39z" />
<glyph unicode="&#x237;" horiz-adv-x="163" d="M-32 -140v68q15 -4 36 -4q50 0 50 63v632h69v-632q0 -131 -119 -131q-16 0 -36 4z" />
<glyph unicode="&#x2c6;" horiz-adv-x="385" d="M338 656h-67l-79 123l-82 -123h-64l108 161h80z" />
<glyph unicode="&#x2c7;" horiz-adv-x="385" d="M230 656h-80l-104 161h67l80 -123l81 123h64z" />
<glyph unicode="&#x2d8;" horiz-adv-x="341" d="M243 811h62q0 -87 -31 -119t-101 -32q-78 0 -107 31t-29 120h61q1 -68 18 -89t55 -21q36 0 53.5 21.5t18.5 88.5z" />
<glyph unicode="&#x2d9;" horiz-adv-x="144" d="M106 668h-69v125h69v-125z" />
<glyph unicode="&#x2da;" horiz-adv-x="267" d="M230 737q0 -35 -25 -56.5t-72 -21.5q-46 0 -71 21.5t-25 56.5q0 36 25 58t71 22q47 0 72 -22t25 -58zM190 737q0 46 -57 46q-58 0 -58 -46q0 -45 58 -45q57 0 57 45z" />
<glyph unicode="&#x2db;" horiz-adv-x="267" d="M231 -38v-11q0 -50 -25.5 -75t-85.5 -25q-37 0 -60 18t-23 50q0 31 27.5 53t78.5 28h59q-116 -17 -116 -68q0 -13 9.5 -23t28.5 -10q49 0 49 52v11h58z" />
<glyph unicode="&#x2dc;" horiz-adv-x="314" d="M276 774v-61q-21 -26 -61 -26q-23 0 -61 16.5t-60 16.5q-35 0 -57 -31v61q23 27 60 27q25 0 62.5 -16.5t59.5 -16.5q34 0 57 30z" />
<glyph unicode="&#x2dd;" horiz-adv-x="437" d="M266 656h-67l112 161h90zM103 656h-66l112 161h89z" />
<glyph unicode="&#x394;" horiz-adv-x="336" d="M324 0h-312l109 823h101zM236 75l-67 613l-73 -613h140z" />
<glyph unicode="&#x3a9;" horiz-adv-x="265" d="M230 0h-88v67q34 141 34 417v202q0 37 -10 53t-33 16q-24 0 -34.5 -16t-10.5 -53v-202q0 -271 35 -417v-67h-88v75h49q-53 146 -53 405v205q0 79 23.5 113t78.5 34q54 0 77.5 -34t23.5 -112v-206q0 -259 -53 -405h49v-75z" />
<glyph unicode="&#x3bc;" horiz-adv-x="303" d="M266 0h-59q-2 14 -2 45q-20 -43 -75 -43q-12 0 -24 5v-146h-69v758h69v-508q0 -28 8.5 -39t29.5 -11q37 0 53 37v521h69v-619z" />
<glyph unicode="&#x3c0;" horiz-adv-x="384" d="M372 52v-50q-27 -7 -62 -7q-100 0 -100 95v478h-97v-568h-76v619h249v-518q0 -26 9.5 -40.5t38.5 -14.5q24 0 38 6z" />
<glyph unicode="&#x1e80;" horiz-adv-x="526" d="M410 0h-92q-36 306 -58 610q-5 -66 -26.5 -279t-36.5 -331h-93l-92 823h79q44 -390 63 -647q20 229 71 647h76q45 -417 62 -647q34 349 71 647h80zM313 860h-67l-134 161h88z" />
<glyph unicode="&#x1e81;" horiz-adv-x="418" d="M336 0h-83l-46 462l-52 -462h-82l-60 619h65l39 -486l57 486h67l51 -486l47 486h65zM259 656h-67l-134 161h88z" />
<glyph unicode="&#x1e82;" horiz-adv-x="526" d="M410 0h-92q-36 306 -58 610q-5 -66 -26.5 -279t-36.5 -331h-93l-92 823h79q44 -390 63 -647q20 229 71 647h76q45 -417 62 -647q34 349 71 647h80zM278 860h-66l112 161h89z" />
<glyph unicode="&#x1e83;" horiz-adv-x="418" d="M336 0h-83l-46 462l-52 -462h-82l-60 619h65l39 -486l57 486h67l51 -486l47 486h65zM224 656h-66l112 161h89z" />
<glyph unicode="&#x1e84;" horiz-adv-x="526" d="M410 0h-92q-36 306 -58 610q-5 -66 -26.5 -279t-36.5 -331h-93l-92 823h79q44 -390 63 -647q20 229 71 647h76q45 -417 62 -647q34 349 71 647h80zM372 872h-69v125h69v-125zM222 872h-69v125h69v-125z" />
<glyph unicode="&#x1e85;" horiz-adv-x="418" d="M336 0h-83l-46 462l-52 -462h-82l-60 619h65l39 -486l57 486h67l51 -486l47 486h65zM318 668h-69v125h69v-125zM168 668h-69v125h69v-125z" />
<glyph unicode="&#x1ef2;" horiz-adv-x="332" d="M202 0h-77v369l-116 454h80q53 -203 78 -339q27 144 81 339h74l-120 -454v-369zM217 860h-67l-134 161h88z" />
<glyph unicode="&#x1ef3;" horiz-adv-x="277" d="M19 -139v69q14 -5 34 -5q35 0 45 63l4 25l-91 606h72q38 -280 54 -466q21 209 61 466h66l-94 -627q-12 -73 -34.5 -104.5t-79.5 -31.5q-12 0 -37 5zM189 656h-67l-134 161h88z" />
<glyph unicode="&#x2013;" horiz-adv-x="279" d="M266 385h-253v59h253v-59z" />
<glyph unicode="&#x2014;" horiz-adv-x="438" d="M426 385h-413v59h413v-59z" />
<glyph unicode="&#x2018;" horiz-adv-x="134" d="M103 645h-72v130q0 55 54 55h8v-33h-7q-16 0 -16 -18v-31h33v-103z" />
<glyph unicode="&#x2019;" horiz-adv-x="134" d="M49 638h-8v33h6q17 0 17 18v31h-33v103h72v-129q0 -56 -54 -56z" />
<glyph unicode="&#x201a;" horiz-adv-x="138" d="M51 -60h-8v33h6q17 0 17 18v31h-33v103h72v-129q0 -56 -54 -56z" />
<glyph unicode="&#x201c;" horiz-adv-x="268" d="M103 645h-72v130q0 55 54 55h8v-33h-7q-16 0 -16 -18v-31h33v-103zM237 645h-72v130q0 55 54 55h8v-33h-7q-16 0 -16 -18v-31h33v-103z" />
<glyph unicode="&#x201d;" horiz-adv-x="268" d="M49 638h-8v33h6q17 0 17 18v31h-33v103h72v-129q0 -56 -54 -56zM183 638h-8v33h6q17 0 17 18v31h-33v103h72v-129q0 -56 -54 -56z" />
<glyph unicode="&#x201e;" horiz-adv-x="276" d="M51 -60h-8v33h6q17 0 17 18v31h-33v103h72v-129q0 -56 -54 -56zM189 -60h-8v33h6q17 0 17 18v31h-33v103h72v-129q0 -56 -54 -56z" />
<glyph unicode="&#x2020;" horiz-adv-x="388" d="M220 195h-54l8 416l-143 -6v56l141 -7l-7 169h57l-7 -169l142 8v-57l-144 6z" />
<glyph unicode="&#x2021;" horiz-adv-x="388" d="M222 0h-57l7 168l-141 -6v55l143 -7l-14 202l14 199l-143 -6v56l141 -7l-7 169h57l-7 -169l142 8v-57l-144 6l14 -199l-14 -202l144 7v-57l-142 8z" />
<glyph unicode="&#x2022;" horiz-adv-x="209" d="M105 386q-34 0 -54 24t-20 60q0 35 20 58.5t54 23.5q33 0 53 -23.5t20 -58.5q0 -36 -20 -60t-53 -24z" />
<glyph unicode="&#x2026;" horiz-adv-x="665" d="M102 0h-71v125h71v-125zM368 0h-71v125h71v-125zM634 0h-71v125h71v-125z" />
<glyph unicode="&#x2030;" horiz-adv-x="612" d="M62 487v281q0 70 67 70q68 0 68 -70v-281q0 -70 -68 -70q-67 0 -67 70zM151 486v283q0 23 -22 23q-21 0 -21 -23v-283q0 -23 21 -23q22 0 22 23zM83 0h-52l362 823h51zM282 55v281q0 70 67 70q68 0 68 -70v-281q0 -70 -68 -70q-67 0 -67 70zM371 54v283q0 23 -22 23 q-21 0 -21 -23v-283q0 -23 21 -23q22 0 22 23zM447 55v281q0 70 67 70q68 0 68 -70v-281q0 -70 -68 -70q-67 0 -67 70zM536 54v283q0 23 -22 23q-21 0 -21 -23v-283q0 -23 21 -23q22 0 22 23z" />
<glyph unicode="&#x2039;" horiz-adv-x="195" d="M176 178l-157 118v75l157 112v-65l-120 -84l120 -88v-68z" />
<glyph unicode="&#x203a;" horiz-adv-x="195" d="M176 296l-157 -118v68l120 88l-120 84v65l157 -112v-75z" />
<glyph unicode="&#x2044;" horiz-adv-x="161" d="M-74 0h-52l362 823h51z" />
<glyph unicode="&#x2070;" horiz-adv-x="195" d="M30 487v281q0 70 67 70q68 0 68 -70v-281q0 -70 -68 -70q-67 0 -67 70zM119 486v283q0 23 -22 23q-21 0 -21 -23v-283q0 -23 21 -23q22 0 22 23z" />
<glyph unicode="&#x2074;" horiz-adv-x="190" d="M60 547h47q0 45 3 168q-29 -100 -50 -168zM150 422h-43v82h-88v40l88 289h43v-286h20v-43h-20v-82z" />
<glyph unicode="&#x2075;" horiz-adv-x="188" d="M115 487v133q0 22 -21 22t-24 -22l-40 1l5 212h122v-46h-80l-5 -121q14 17 40 17q47 0 47 -64v-133q0 -69 -64 -69q-65 0 -65 69v87h45v-86q0 -24 20 -24t20 24z" />
<glyph unicode="&#x2076;" horiz-adv-x="190" d="M115 487v113q0 36 -20 36q-17 0 -19 -17v-132q0 -24 19 -24q20 0 20 24zM161 616v-129q0 -70 -66 -70t-66 70v281q0 70 66 70q64 0 64 -70v-71h-45v71q0 23 -19 23t-19 -23v-104q12 16 36 16q26 0 37.5 -15t11.5 -49z" />
<glyph unicode="&#x2077;" horiz-adv-x="175" d="M92 422h-46q0 104 14.5 191.5t27 121.5t22.5 52h-89v46h132v-43q-61 -136 -61 -368z" />
<glyph unicode="&#x2078;" horiz-adv-x="188" d="M159 586v-100q0 -69 -66 -69q-65 0 -65 69v100q0 37 28 49q-24 11 -24 45v87q0 71 61 71q62 0 62 -71v-87q0 -34 -24 -45q28 -12 28 -49zM113 487v102q0 21 -20 21q-19 0 -19 -21v-102q0 -24 19 -24q20 0 20 24zM113 674v93q0 24 -20 24q-19 0 -19 -24v-93q0 -21 19 -21 q20 0 20 21z" />
<glyph unicode="&#x2079;" horiz-adv-x="190" d="M113 644v124q0 23 -19 23q-20 0 -20 -23v-118q0 -23 20 -23q17 0 19 17zM113 487v111q-11 -17 -35 -17q-26 0 -37.5 15.5t-11.5 49.5v122q0 70 65 70q66 0 66 -70v-281q0 -70 -66 -70q-31 0 -48 19t-17 51v71h45v-71q0 -24 20 -24q19 0 19 24z" />
<glyph unicode="&#x2080;" horiz-adv-x="195" d="M30 55v281q0 70 67 70q68 0 68 -70v-281q0 -70 -68 -70q-67 0 -67 70zM119 54v283q0 23 -22 23q-21 0 -21 -23v-283q0 -23 21 -23q22 0 22 23z" />
<glyph unicode="&#x2081;" horiz-adv-x="125" d="M91 -10h-46v336h-22v45h10q17 0 17 19v11h41v-411z" />
<glyph unicode="&#x2082;" horiz-adv-x="185" d="M158 -10h-131v75q0 37 7.5 59.5t31.5 57.5q29 43 37.5 62t8.5 47v44q0 24 -20 24q-19 0 -19 -24v-72h-46v71q0 38 16 55t49 17q66 0 66 -72v-48q0 -56 -43 -115q-27 -37 -34 -57t-7 -49v-29h84v-46z" />
<glyph unicode="&#x2083;" horiz-adv-x="186" d="M113 55v99q0 24 -20 24h-21v43h23q17 0 17 24v90q0 24 -19 24t-19 -24v-73h-46v73q0 71 65 71q33 0 48.5 -17t15.5 -55v-91q0 -32 -27 -44q28 -8 28 -44v-100q0 -33 -16.5 -51.5t-48.5 -18.5t-49 19t-17 51v81h47v-81q0 -24 19 -24q20 0 20 24z" />
<glyph unicode="&#x2084;" horiz-adv-x="190" d="M60 115h47q0 45 3 168q-29 -100 -50 -168zM150 -10h-43v82h-88v40l88 289h43v-286h20v-43h-20v-82z" />
<glyph unicode="&#x2085;" horiz-adv-x="188" d="M115 55v133q0 22 -21 22t-24 -22l-40 1l5 212h122v-46h-80l-5 -121q14 17 40 17q47 0 47 -64v-133q0 -69 -64 -69q-65 0 -65 69v87h45v-86q0 -24 20 -24t20 24z" />
<glyph unicode="&#x2086;" horiz-adv-x="190" d="M115 55v113q0 36 -20 36q-17 0 -19 -17v-132q0 -24 19 -24q20 0 20 24zM161 184v-129q0 -70 -66 -70t-66 70v281q0 70 66 70q64 0 64 -70v-71h-45v71q0 23 -19 23t-19 -23v-104q12 16 36 16q26 0 37.5 -15t11.5 -49z" />
<glyph unicode="&#x2087;" horiz-adv-x="175" d="M92 -10h-46q0 104 14.5 191.5t27 121.5t22.5 52h-89v46h132v-43q-61 -136 -61 -368z" />
<glyph unicode="&#x2088;" horiz-adv-x="188" d="M159 154v-100q0 -69 -66 -69q-65 0 -65 69v100q0 37 28 49q-24 11 -24 45v87q0 71 61 71q62 0 62 -71v-87q0 -34 -24 -45q28 -12 28 -49zM113 55v102q0 21 -20 21q-19 0 -19 -21v-102q0 -24 19 -24q20 0 20 24zM113 242v93q0 24 -20 24q-19 0 -19 -24v-93q0 -21 19 -21 q20 0 20 21z" />
<glyph unicode="&#x2089;" horiz-adv-x="190" d="M113 212v124q0 23 -19 23q-20 0 -20 -23v-118q0 -23 20 -23q17 0 19 17zM113 55v111q-11 -17 -35 -17q-26 0 -37.5 15.5t-11.5 49.5v122q0 70 65 70q66 0 66 -70v-281q0 -70 -66 -70q-31 0 -48 19t-17 51v71h45v-71q0 -24 20 -24q19 0 19 24z" />
<glyph unicode="&#x20ac;" horiz-adv-x="342" d="M247 147v61h75v-77q0 -140 -132 -140q-134 0 -134 140v165h-46l9 58h37v129h-46l9 59h37v130q0 84 39 122t135 38q55 0 102 -5l-12 -77q-45 6 -88 6q-59 0 -79.5 -19.5t-20.5 -64.5v-130h156l-10 -59h-146v-129h127l-10 -58h-117v-167q0 -27 16 -45.5t42 -18.5 q32 0 44.5 19.5t12.5 62.5z" />
<glyph unicode="&#x2117;" horiz-adv-x="516" d="M485 602v-381q0 -123 -54 -176.5t-173 -53.5t-173 53.5t-54 176.5v381q0 123 54 176.5t173 53.5t173 -53.5t54 -176.5zM433 214v393q0 98 -39 136.5t-136 38.5t-136 -38.5t-39 -136.5v-393q0 -94 40 -133.5t135 -39.5q96 0 135.5 39.5t39.5 133.5zM298 494v88q0 23 -9 33 t-30 10h-32v-175h33q38 0 38 44zM227 157h-49v518h81q88 0 88 -93v-86q0 -93 -87 -93h-33v-246z" />
<glyph unicode="&#x2122;" horiz-adv-x="484" d="M129 443h-48v343h-54v37h156v-37h-54v-343zM446 443h-43v128q0 99 1 148l-51 -276h-42l-52 276q2 -98 2 -148v-128h-44v380h63l52 -297l50 297h64v-380z" />
<glyph unicode="&#x2153;" horiz-adv-x="480" d="M143 422h-46v336h-22v45h10q17 0 17 19v11h41v-411zM83 0h-52l362 823h51zM395 55v99q0 24 -20 24h-21v43h23q17 0 17 24v90q0 24 -19 24t-19 -24v-73h-46v73q0 71 65 71q33 0 48.5 -17t15.5 -55v-91q0 -32 -27 -44q28 -8 28 -44v-100q0 -33 -16.5 -51.5t-48.5 -18.5 t-49 19t-17 51v81h47v-81q0 -24 19 -24q20 0 20 24z" />
<glyph unicode="&#x2154;" horiz-adv-x="480" d="M170 422h-131v75q0 37 7.5 59.5t31.5 57.5q29 43 37.5 62t8.5 47v44q0 24 -20 24q-19 0 -19 -24v-72h-46v71q0 38 16 55t49 17q66 0 66 -72v-48q0 -56 -43 -115q-27 -37 -34 -57t-7 -49v-29h84v-46zM83 0h-52l362 823h51zM385 55v99q0 24 -20 24h-21v43h23q17 0 17 24v90 q0 24 -19 24t-19 -24v-73h-46v73q0 71 65 71q33 0 48.5 -17t15.5 -55v-91q0 -32 -27 -44q28 -8 28 -44v-100q0 -33 -16.5 -51.5t-48.5 -18.5t-49 19t-17 51v81h47v-81q0 -24 19 -24q20 0 20 24z" />
<glyph unicode="&#x215b;" horiz-adv-x="480" d="M143 422h-46v336h-22v45h10q17 0 17 19v11h41v-411zM83 0h-52l362 823h51zM441 154v-100q0 -69 -66 -69q-65 0 -65 69v100q0 37 28 49q-24 11 -24 45v87q0 71 61 71q62 0 62 -71v-87q0 -34 -24 -45q28 -12 28 -49zM395 55v102q0 21 -20 21q-19 0 -19 -21v-102 q0 -24 19 -24q20 0 20 24zM395 242v93q0 24 -20 24q-19 0 -19 -24v-93q0 -21 19 -21q20 0 20 21z" />
<glyph unicode="&#x215c;" horiz-adv-x="480" d="M134 487v99q0 24 -20 24h-21v43h23q17 0 17 24v90q0 24 -19 24t-19 -24v-73h-46v73q0 71 65 71q33 0 48.5 -17t15.5 -55v-91q0 -32 -27 -44q28 -8 28 -44v-100q0 -33 -16.5 -51.5t-48.5 -18.5t-49 19t-17 51v81h47v-81q0 -24 19 -24q20 0 20 24zM83 0h-52l362 823h51z M431 154v-100q0 -69 -66 -69q-65 0 -65 69v100q0 37 28 49q-24 11 -24 45v87q0 71 61 71q62 0 62 -71v-87q0 -34 -24 -45q28 -12 28 -49zM385 55v102q0 21 -20 21q-19 0 -19 -21v-102q0 -24 19 -24q20 0 20 24zM385 242v93q0 24 -20 24q-19 0 -19 -24v-93q0 -21 19 -21 q20 0 20 21z" />
<glyph unicode="&#x215d;" horiz-adv-x="480" d="M134 487v133q0 22 -21 22t-24 -22l-40 1l5 212h122v-46h-80l-5 -121q14 17 40 17q47 0 47 -64v-133q0 -69 -64 -69q-65 0 -65 69v87h45v-86q0 -24 20 -24t20 24zM83 0h-52l362 823h51zM431 154v-100q0 -69 -66 -69q-65 0 -65 69v100q0 37 28 49q-24 11 -24 45v87 q0 71 61 71q62 0 62 -71v-87q0 -34 -24 -45q28 -12 28 -49zM385 55v102q0 21 -20 21q-19 0 -19 -21v-102q0 -24 19 -24q20 0 20 24zM385 242v93q0 24 -20 24q-19 0 -19 -24v-93q0 -21 19 -21q20 0 20 21z" />
<glyph unicode="&#x215e;" horiz-adv-x="480" d="M144 422h-46q0 104 14.5 191.5t27 121.5t22.5 52h-89v46h132v-43q-61 -136 -61 -368zM83 0h-52l362 823h51zM431 154v-100q0 -69 -66 -69q-65 0 -65 69v100q0 37 28 49q-24 11 -24 45v87q0 71 61 71q62 0 62 -71v-87q0 -34 -24 -45q28 -12 28 -49zM385 55v102 q0 21 -20 21q-19 0 -19 -21v-102q0 -24 19 -24q20 0 20 24zM385 242v93q0 24 -20 24q-19 0 -19 -24v-93q0 -21 19 -21q20 0 20 21z" />
<glyph unicode="&#x2202;" horiz-adv-x="426" d="M178 746v76q17 9 63 9q168 0 168 -326q0 -65 -5.5 -127.5t-21.5 -135t-42 -126t-72 -89.5t-106 -36q-74 0 -109.5 60.5t-35.5 158.5q0 115 51.5 191.5t147.5 76.5q88 0 124 -93q6 61 6 125q0 244 -117 244q-34 0 -51 -8zM331 319q-30 99 -111 99q-69 0 -105 -55t-36 -145 q0 -70 23.5 -111t70.5 -41q123 0 158 253z" />
<glyph unicode="&#x220f;" horiz-adv-x="436" d="M399 -139h-68v904h-228v-904h-66v962h362v-962z" />
<glyph unicode="&#x2211;" horiz-adv-x="406" d="M384 -139h-363v55l192 425l-192 425v57h363v-77h-279l177 -405l-177 -406h279v-74z" />
<glyph unicode="&#x2212;" horiz-adv-x="462" d="M426 391h-389v57h389v-57z" />
<glyph unicode="&#x221a;" horiz-adv-x="471" d="M248 0h-75l-69 297h-82v53h133l55 -267l186 740h63z" />
<glyph unicode="&#x221e;" horiz-adv-x="607" d="M303 327q-10 -52 -40 -71.5t-86 -19.5q-36 0 -57 3.5t-44.5 17.5t-34 46t-10.5 84q0 51 10.5 83t33.5 46t44.5 18t57.5 4q55 0 85.5 -20t40.5 -72q10 51 41 71.5t85 20.5q35 0 56.5 -4t44.5 -18t34 -46t11 -83q0 -52 -11 -84t-34 -46t-44 -17.5t-57 -3.5 q-55 0 -85.5 19.5t-40.5 71.5zM526 387q0 31 -7 49.5t-23 26.5t-29.5 10t-38.5 2q-48 0 -70.5 -18.5t-22.5 -69.5q0 -53 22 -71.5t71 -18.5q50 0 74 17t24 73zM272 387q0 51 -22 69.5t-72 18.5q-24 0 -38 -2t-29.5 -10t-22.5 -26.5t-7 -49.5t7 -50t22.5 -27.5t29.5 -10.5 t38 -2q47 0 70.5 18t23.5 72z" />
<glyph unicode="&#x222b;" horiz-adv-x="289" d="M54 -139h-39v58h37q56 0 56 70v839q0 128 127 128h39v-58h-38q-55 0 -55 -71v-840q0 -126 -127 -126z" />
<glyph unicode="&#x2248;" horiz-adv-x="463" d="M427 395v-68q-43 -40 -108 -40q-34 0 -93 25t-88 25q-58 0 -101 -52v69q36 40 98 40q40 0 99.5 -25t86.5 -25q61 0 106 51zM427 555v-68q-43 -40 -108 -40q-34 0 -93 25t-88 25q-58 0 -101 -52v69q36 40 98 40q40 0 99.5 -25t86.5 -25q61 0 106 51z" />
<glyph unicode="&#x2260;" horiz-adv-x="462" d="M82 0h-58l128 297h-115v58h140l56 129h-196v58h221l122 281h57l-122 -281h111v-58h-136l-55 -129h191v-58h-216z" />
<glyph unicode="&#x2264;" horiz-adv-x="462" d="M426 255l-389 129v70l389 128v-58l-331 -103l331 -109v-57zM426 161h-389v57h389v-57z" />
<glyph unicode="&#x2265;" horiz-adv-x="462" d="M426 384l-389 -129v57l331 109l-331 103v58l389 -128v-70zM426 161h-389v57h389v-57z" />
<glyph unicode="&#x25ca;" horiz-adv-x="393" d="M231 0h-73l-127 412l127 411h73l131 -411zM193 63l107 349l-103 347l-105 -347z" />
<glyph unicode="&#xe000;" horiz-adv-x="620" d="M0 620h620v-620h-620v620z" />
<glyph unicode="&#xf8ff;" horiz-adv-x="136" />
<glyph unicode="&#xfb01;" horiz-adv-x="338" d="M108 0h-68v558h-30v61h30v86q0 61 22 92t73 31q27 0 45 -6v-59q-10 3 -25 3q-47 0 -47 -63v-84h70v-61h-70v-558zM299 698h-69v125h69v-125zM299 0h-69v619h69v-619z" />
<glyph unicode="&#xfb02;" horiz-adv-x="334" d="M108 0h-68v558h-30v61h30v86q0 61 22 92t73 31q27 0 45 -6v-59q-10 3 -25 3q-47 0 -47 -63v-84h70v-61h-70v-558zM297 0h-69v823h69v-823z" />
<glyph horiz-adv-x="136" />
</font>
</defs>
</svg>
